%TF.GenerationSoftware,KiCad,Pcbnew,(6.0.2)*%
%TF.CreationDate,2022-03-27T20:09:04+02:00*%
%TF.ProjectId,pcb,7063622e-6b69-4636-9164-5f7063625858,rev?*%
%TF.SameCoordinates,Original*%
%TF.FileFunction,Legend,Top*%
%TF.FilePolarity,Positive*%
%FSLAX46Y46*%
G04 Gerber Fmt 4.6, Leading zero omitted, Abs format (unit mm)*
G04 Created by KiCad (PCBNEW (6.0.2)) date 2022-03-27 20:09:04*
%MOMM*%
%LPD*%
G01*
G04 APERTURE LIST*
%ADD10C,0.150000*%
%ADD11C,0.120000*%
G04 APERTURE END LIST*
D10*
%TO.C,D1*%
X59011904Y-57452380D02*
X59011904Y-56452380D01*
X59250000Y-56452380D01*
X59392857Y-56500000D01*
X59488095Y-56595238D01*
X59535714Y-56690476D01*
X59583333Y-56880952D01*
X59583333Y-57023809D01*
X59535714Y-57214285D01*
X59488095Y-57309523D01*
X59392857Y-57404761D01*
X59250000Y-57452380D01*
X59011904Y-57452380D01*
X60535714Y-57452380D02*
X59964285Y-57452380D01*
X60250000Y-57452380D02*
X60250000Y-56452380D01*
X60154761Y-56595238D01*
X60059523Y-56690476D01*
X59964285Y-56738095D01*
%TO.C,220om3*%
X89167619Y-62783333D02*
X89120000Y-62735714D01*
X89072380Y-62640476D01*
X89072380Y-62402380D01*
X89120000Y-62307142D01*
X89167619Y-62259523D01*
X89262857Y-62211904D01*
X89358095Y-62211904D01*
X89500952Y-62259523D01*
X90072380Y-62830952D01*
X90072380Y-62211904D01*
X89167619Y-61830952D02*
X89120000Y-61783333D01*
X89072380Y-61688095D01*
X89072380Y-61450000D01*
X89120000Y-61354761D01*
X89167619Y-61307142D01*
X89262857Y-61259523D01*
X89358095Y-61259523D01*
X89500952Y-61307142D01*
X90072380Y-61878571D01*
X90072380Y-61259523D01*
X89072380Y-60640476D02*
X89072380Y-60545238D01*
X89120000Y-60450000D01*
X89167619Y-60402380D01*
X89262857Y-60354761D01*
X89453333Y-60307142D01*
X89691428Y-60307142D01*
X89881904Y-60354761D01*
X89977142Y-60402380D01*
X90024761Y-60450000D01*
X90072380Y-60545238D01*
X90072380Y-60640476D01*
X90024761Y-60735714D01*
X89977142Y-60783333D01*
X89881904Y-60830952D01*
X89691428Y-60878571D01*
X89453333Y-60878571D01*
X89262857Y-60830952D01*
X89167619Y-60783333D01*
X89120000Y-60735714D01*
X89072380Y-60640476D01*
X90072380Y-59735714D02*
X90024761Y-59830952D01*
X89977142Y-59878571D01*
X89881904Y-59926190D01*
X89596190Y-59926190D01*
X89500952Y-59878571D01*
X89453333Y-59830952D01*
X89405714Y-59735714D01*
X89405714Y-59592857D01*
X89453333Y-59497619D01*
X89500952Y-59450000D01*
X89596190Y-59402380D01*
X89881904Y-59402380D01*
X89977142Y-59450000D01*
X90024761Y-59497619D01*
X90072380Y-59592857D01*
X90072380Y-59735714D01*
X90072380Y-58973809D02*
X89405714Y-58973809D01*
X89500952Y-58973809D02*
X89453333Y-58926190D01*
X89405714Y-58830952D01*
X89405714Y-58688095D01*
X89453333Y-58592857D01*
X89548571Y-58545238D01*
X90072380Y-58545238D01*
X89548571Y-58545238D02*
X89453333Y-58497619D01*
X89405714Y-58402380D01*
X89405714Y-58259523D01*
X89453333Y-58164285D01*
X89548571Y-58116666D01*
X90072380Y-58116666D01*
X89072380Y-57735714D02*
X89072380Y-57116666D01*
X89453333Y-57450000D01*
X89453333Y-57307142D01*
X89500952Y-57211904D01*
X89548571Y-57164285D01*
X89643809Y-57116666D01*
X89881904Y-57116666D01*
X89977142Y-57164285D01*
X90024761Y-57211904D01*
X90072380Y-57307142D01*
X90072380Y-57592857D01*
X90024761Y-57688095D01*
X89977142Y-57735714D01*
%TO.C,REF\u002A\u002A*%
X48166666Y-63252380D02*
X47833333Y-62776190D01*
X47595238Y-63252380D02*
X47595238Y-62252380D01*
X47976190Y-62252380D01*
X48071428Y-62300000D01*
X48119047Y-62347619D01*
X48166666Y-62442857D01*
X48166666Y-62585714D01*
X48119047Y-62680952D01*
X48071428Y-62728571D01*
X47976190Y-62776190D01*
X47595238Y-62776190D01*
X48595238Y-62728571D02*
X48928571Y-62728571D01*
X49071428Y-63252380D02*
X48595238Y-63252380D01*
X48595238Y-62252380D01*
X49071428Y-62252380D01*
X49833333Y-62728571D02*
X49500000Y-62728571D01*
X49500000Y-63252380D02*
X49500000Y-62252380D01*
X49976190Y-62252380D01*
X50500000Y-62252380D02*
X50500000Y-62490476D01*
X50261904Y-62395238D02*
X50500000Y-62490476D01*
X50738095Y-62395238D01*
X50357142Y-62680952D02*
X50500000Y-62490476D01*
X50642857Y-62680952D01*
X51261904Y-62252380D02*
X51261904Y-62490476D01*
X51023809Y-62395238D02*
X51261904Y-62490476D01*
X51500000Y-62395238D01*
X51119047Y-62680952D02*
X51261904Y-62490476D01*
X51404761Y-62680952D01*
%TO.C,R1*%
X64922380Y-62966666D02*
X64446190Y-63300000D01*
X64922380Y-63538095D02*
X63922380Y-63538095D01*
X63922380Y-63157142D01*
X63970000Y-63061904D01*
X64017619Y-63014285D01*
X64112857Y-62966666D01*
X64255714Y-62966666D01*
X64350952Y-63014285D01*
X64398571Y-63061904D01*
X64446190Y-63157142D01*
X64446190Y-63538095D01*
X64922380Y-62014285D02*
X64922380Y-62585714D01*
X64922380Y-62300000D02*
X63922380Y-62300000D01*
X64065238Y-62395238D01*
X64160476Y-62490476D01*
X64208095Y-62585714D01*
%TO.C,U1*%
X68052380Y-50561904D02*
X68861904Y-50561904D01*
X68957142Y-50514285D01*
X69004761Y-50466666D01*
X69052380Y-50371428D01*
X69052380Y-50180952D01*
X69004761Y-50085714D01*
X68957142Y-50038095D01*
X68861904Y-49990476D01*
X68052380Y-49990476D01*
X69052380Y-48990476D02*
X69052380Y-49561904D01*
X69052380Y-49276190D02*
X68052380Y-49276190D01*
X68195238Y-49371428D01*
X68290476Y-49466666D01*
X68338095Y-49561904D01*
%TO.C,220om4*%
X93527619Y-62783333D02*
X93480000Y-62735714D01*
X93432380Y-62640476D01*
X93432380Y-62402380D01*
X93480000Y-62307142D01*
X93527619Y-62259523D01*
X93622857Y-62211904D01*
X93718095Y-62211904D01*
X93860952Y-62259523D01*
X94432380Y-62830952D01*
X94432380Y-62211904D01*
X93527619Y-61830952D02*
X93480000Y-61783333D01*
X93432380Y-61688095D01*
X93432380Y-61450000D01*
X93480000Y-61354761D01*
X93527619Y-61307142D01*
X93622857Y-61259523D01*
X93718095Y-61259523D01*
X93860952Y-61307142D01*
X94432380Y-61878571D01*
X94432380Y-61259523D01*
X93432380Y-60640476D02*
X93432380Y-60545238D01*
X93480000Y-60450000D01*
X93527619Y-60402380D01*
X93622857Y-60354761D01*
X93813333Y-60307142D01*
X94051428Y-60307142D01*
X94241904Y-60354761D01*
X94337142Y-60402380D01*
X94384761Y-60450000D01*
X94432380Y-60545238D01*
X94432380Y-60640476D01*
X94384761Y-60735714D01*
X94337142Y-60783333D01*
X94241904Y-60830952D01*
X94051428Y-60878571D01*
X93813333Y-60878571D01*
X93622857Y-60830952D01*
X93527619Y-60783333D01*
X93480000Y-60735714D01*
X93432380Y-60640476D01*
X94432380Y-59735714D02*
X94384761Y-59830952D01*
X94337142Y-59878571D01*
X94241904Y-59926190D01*
X93956190Y-59926190D01*
X93860952Y-59878571D01*
X93813333Y-59830952D01*
X93765714Y-59735714D01*
X93765714Y-59592857D01*
X93813333Y-59497619D01*
X93860952Y-59450000D01*
X93956190Y-59402380D01*
X94241904Y-59402380D01*
X94337142Y-59450000D01*
X94384761Y-59497619D01*
X94432380Y-59592857D01*
X94432380Y-59735714D01*
X94432380Y-58973809D02*
X93765714Y-58973809D01*
X93860952Y-58973809D02*
X93813333Y-58926190D01*
X93765714Y-58830952D01*
X93765714Y-58688095D01*
X93813333Y-58592857D01*
X93908571Y-58545238D01*
X94432380Y-58545238D01*
X93908571Y-58545238D02*
X93813333Y-58497619D01*
X93765714Y-58402380D01*
X93765714Y-58259523D01*
X93813333Y-58164285D01*
X93908571Y-58116666D01*
X94432380Y-58116666D01*
X93765714Y-57211904D02*
X94432380Y-57211904D01*
X93384761Y-57450000D02*
X94099047Y-57688095D01*
X94099047Y-57069047D01*
%TO.C,J2*%
X65616666Y-56272380D02*
X65616666Y-56986666D01*
X65569047Y-57129523D01*
X65473809Y-57224761D01*
X65330952Y-57272380D01*
X65235714Y-57272380D01*
X66045238Y-56367619D02*
X66092857Y-56320000D01*
X66188095Y-56272380D01*
X66426190Y-56272380D01*
X66521428Y-56320000D01*
X66569047Y-56367619D01*
X66616666Y-56462857D01*
X66616666Y-56558095D01*
X66569047Y-56700952D01*
X65997619Y-57272380D01*
X66616666Y-57272380D01*
%TO.C,REF\u002A\u002A*%
X96166666Y-41252380D02*
X95833333Y-40776190D01*
X95595238Y-41252380D02*
X95595238Y-40252380D01*
X95976190Y-40252380D01*
X96071428Y-40300000D01*
X96119047Y-40347619D01*
X96166666Y-40442857D01*
X96166666Y-40585714D01*
X96119047Y-40680952D01*
X96071428Y-40728571D01*
X95976190Y-40776190D01*
X95595238Y-40776190D01*
X96595238Y-40728571D02*
X96928571Y-40728571D01*
X97071428Y-41252380D02*
X96595238Y-41252380D01*
X96595238Y-40252380D01*
X97071428Y-40252380D01*
X97833333Y-40728571D02*
X97500000Y-40728571D01*
X97500000Y-41252380D02*
X97500000Y-40252380D01*
X97976190Y-40252380D01*
X98500000Y-40252380D02*
X98500000Y-40490476D01*
X98261904Y-40395238D02*
X98500000Y-40490476D01*
X98738095Y-40395238D01*
X98357142Y-40680952D02*
X98500000Y-40490476D01*
X98642857Y-40680952D01*
X99261904Y-40252380D02*
X99261904Y-40490476D01*
X99023809Y-40395238D02*
X99261904Y-40490476D01*
X99500000Y-40395238D01*
X99119047Y-40680952D02*
X99261904Y-40490476D01*
X99404761Y-40680952D01*
%TO.C,J6*%
X86366666Y-57382380D02*
X86366666Y-58096666D01*
X86319047Y-58239523D01*
X86223809Y-58334761D01*
X86080952Y-58382380D01*
X85985714Y-58382380D01*
X87271428Y-57382380D02*
X87080952Y-57382380D01*
X86985714Y-57430000D01*
X86938095Y-57477619D01*
X86842857Y-57620476D01*
X86795238Y-57810952D01*
X86795238Y-58191904D01*
X86842857Y-58287142D01*
X86890476Y-58334761D01*
X86985714Y-58382380D01*
X87176190Y-58382380D01*
X87271428Y-58334761D01*
X87319047Y-58287142D01*
X87366666Y-58191904D01*
X87366666Y-57953809D01*
X87319047Y-57858571D01*
X87271428Y-57810952D01*
X87176190Y-57763333D01*
X86985714Y-57763333D01*
X86890476Y-57810952D01*
X86842857Y-57858571D01*
X86795238Y-57953809D01*
%TO.C,220om1*%
X52317619Y-63275833D02*
X52270000Y-63228214D01*
X52222380Y-63132976D01*
X52222380Y-62894880D01*
X52270000Y-62799642D01*
X52317619Y-62752023D01*
X52412857Y-62704404D01*
X52508095Y-62704404D01*
X52650952Y-62752023D01*
X53222380Y-63323452D01*
X53222380Y-62704404D01*
X52317619Y-62323452D02*
X52270000Y-62275833D01*
X52222380Y-62180595D01*
X52222380Y-61942500D01*
X52270000Y-61847261D01*
X52317619Y-61799642D01*
X52412857Y-61752023D01*
X52508095Y-61752023D01*
X52650952Y-61799642D01*
X53222380Y-62371071D01*
X53222380Y-61752023D01*
X52222380Y-61132976D02*
X52222380Y-61037738D01*
X52270000Y-60942500D01*
X52317619Y-60894880D01*
X52412857Y-60847261D01*
X52603333Y-60799642D01*
X52841428Y-60799642D01*
X53031904Y-60847261D01*
X53127142Y-60894880D01*
X53174761Y-60942500D01*
X53222380Y-61037738D01*
X53222380Y-61132976D01*
X53174761Y-61228214D01*
X53127142Y-61275833D01*
X53031904Y-61323452D01*
X52841428Y-61371071D01*
X52603333Y-61371071D01*
X52412857Y-61323452D01*
X52317619Y-61275833D01*
X52270000Y-61228214D01*
X52222380Y-61132976D01*
X53222380Y-60228214D02*
X53174761Y-60323452D01*
X53127142Y-60371071D01*
X53031904Y-60418690D01*
X52746190Y-60418690D01*
X52650952Y-60371071D01*
X52603333Y-60323452D01*
X52555714Y-60228214D01*
X52555714Y-60085357D01*
X52603333Y-59990119D01*
X52650952Y-59942500D01*
X52746190Y-59894880D01*
X53031904Y-59894880D01*
X53127142Y-59942500D01*
X53174761Y-59990119D01*
X53222380Y-60085357D01*
X53222380Y-60228214D01*
X53222380Y-59466309D02*
X52555714Y-59466309D01*
X52650952Y-59466309D02*
X52603333Y-59418690D01*
X52555714Y-59323452D01*
X52555714Y-59180595D01*
X52603333Y-59085357D01*
X52698571Y-59037738D01*
X53222380Y-59037738D01*
X52698571Y-59037738D02*
X52603333Y-58990119D01*
X52555714Y-58894880D01*
X52555714Y-58752023D01*
X52603333Y-58656785D01*
X52698571Y-58609166D01*
X53222380Y-58609166D01*
X53222380Y-57609166D02*
X53222380Y-58180595D01*
X53222380Y-57894880D02*
X52222380Y-57894880D01*
X52365238Y-57990119D01*
X52460476Y-58085357D01*
X52508095Y-58180595D01*
%TO.C,J4*%
X49566666Y-61457380D02*
X49566666Y-62171666D01*
X49519047Y-62314523D01*
X49423809Y-62409761D01*
X49280952Y-62457380D01*
X49185714Y-62457380D01*
X50471428Y-61790714D02*
X50471428Y-62457380D01*
X50233333Y-61409761D02*
X49995238Y-62124047D01*
X50614285Y-62124047D01*
%TO.C,J1*%
X96266666Y-46647380D02*
X96266666Y-47361666D01*
X96219047Y-47504523D01*
X96123809Y-47599761D01*
X95980952Y-47647380D01*
X95885714Y-47647380D01*
X97266666Y-47647380D02*
X96695238Y-47647380D01*
X96980952Y-47647380D02*
X96980952Y-46647380D01*
X96885714Y-46790238D01*
X96790476Y-46885476D01*
X96695238Y-46933095D01*
%TO.C,200om2*%
X95027619Y-62783333D02*
X94980000Y-62735714D01*
X94932380Y-62640476D01*
X94932380Y-62402380D01*
X94980000Y-62307142D01*
X95027619Y-62259523D01*
X95122857Y-62211904D01*
X95218095Y-62211904D01*
X95360952Y-62259523D01*
X95932380Y-62830952D01*
X95932380Y-62211904D01*
X94932380Y-61592857D02*
X94932380Y-61497619D01*
X94980000Y-61402380D01*
X95027619Y-61354761D01*
X95122857Y-61307142D01*
X95313333Y-61259523D01*
X95551428Y-61259523D01*
X95741904Y-61307142D01*
X95837142Y-61354761D01*
X95884761Y-61402380D01*
X95932380Y-61497619D01*
X95932380Y-61592857D01*
X95884761Y-61688095D01*
X95837142Y-61735714D01*
X95741904Y-61783333D01*
X95551428Y-61830952D01*
X95313333Y-61830952D01*
X95122857Y-61783333D01*
X95027619Y-61735714D01*
X94980000Y-61688095D01*
X94932380Y-61592857D01*
X94932380Y-60640476D02*
X94932380Y-60545238D01*
X94980000Y-60450000D01*
X95027619Y-60402380D01*
X95122857Y-60354761D01*
X95313333Y-60307142D01*
X95551428Y-60307142D01*
X95741904Y-60354761D01*
X95837142Y-60402380D01*
X95884761Y-60450000D01*
X95932380Y-60545238D01*
X95932380Y-60640476D01*
X95884761Y-60735714D01*
X95837142Y-60783333D01*
X95741904Y-60830952D01*
X95551428Y-60878571D01*
X95313333Y-60878571D01*
X95122857Y-60830952D01*
X95027619Y-60783333D01*
X94980000Y-60735714D01*
X94932380Y-60640476D01*
X95932380Y-59735714D02*
X95884761Y-59830952D01*
X95837142Y-59878571D01*
X95741904Y-59926190D01*
X95456190Y-59926190D01*
X95360952Y-59878571D01*
X95313333Y-59830952D01*
X95265714Y-59735714D01*
X95265714Y-59592857D01*
X95313333Y-59497619D01*
X95360952Y-59450000D01*
X95456190Y-59402380D01*
X95741904Y-59402380D01*
X95837142Y-59450000D01*
X95884761Y-59497619D01*
X95932380Y-59592857D01*
X95932380Y-59735714D01*
X95932380Y-58973809D02*
X95265714Y-58973809D01*
X95360952Y-58973809D02*
X95313333Y-58926190D01*
X95265714Y-58830952D01*
X95265714Y-58688095D01*
X95313333Y-58592857D01*
X95408571Y-58545238D01*
X95932380Y-58545238D01*
X95408571Y-58545238D02*
X95313333Y-58497619D01*
X95265714Y-58402380D01*
X95265714Y-58259523D01*
X95313333Y-58164285D01*
X95408571Y-58116666D01*
X95932380Y-58116666D01*
X95027619Y-57688095D02*
X94980000Y-57640476D01*
X94932380Y-57545238D01*
X94932380Y-57307142D01*
X94980000Y-57211904D01*
X95027619Y-57164285D01*
X95122857Y-57116666D01*
X95218095Y-57116666D01*
X95360952Y-57164285D01*
X95932380Y-57735714D01*
X95932380Y-57116666D01*
%TO.C,J3*%
X59366666Y-57347380D02*
X59366666Y-58061666D01*
X59319047Y-58204523D01*
X59223809Y-58299761D01*
X59080952Y-58347380D01*
X58985714Y-58347380D01*
X59747619Y-57347380D02*
X60366666Y-57347380D01*
X60033333Y-57728333D01*
X60176190Y-57728333D01*
X60271428Y-57775952D01*
X60319047Y-57823571D01*
X60366666Y-57918809D01*
X60366666Y-58156904D01*
X60319047Y-58252142D01*
X60271428Y-58299761D01*
X60176190Y-58347380D01*
X59890476Y-58347380D01*
X59795238Y-58299761D01*
X59747619Y-58252142D01*
%TO.C,D2*%
X86011904Y-52352380D02*
X86011904Y-51352380D01*
X86250000Y-51352380D01*
X86392857Y-51400000D01*
X86488095Y-51495238D01*
X86535714Y-51590476D01*
X86583333Y-51780952D01*
X86583333Y-51923809D01*
X86535714Y-52114285D01*
X86488095Y-52209523D01*
X86392857Y-52304761D01*
X86250000Y-52352380D01*
X86011904Y-52352380D01*
X86964285Y-51447619D02*
X87011904Y-51400000D01*
X87107142Y-51352380D01*
X87345238Y-51352380D01*
X87440476Y-51400000D01*
X87488095Y-51447619D01*
X87535714Y-51542857D01*
X87535714Y-51638095D01*
X87488095Y-51780952D01*
X86916666Y-52352380D01*
X87535714Y-52352380D01*
%TO.C,J5*%
X81266666Y-56422380D02*
X81266666Y-57136666D01*
X81219047Y-57279523D01*
X81123809Y-57374761D01*
X80980952Y-57422380D01*
X80885714Y-57422380D01*
X82219047Y-56422380D02*
X81742857Y-56422380D01*
X81695238Y-56898571D01*
X81742857Y-56850952D01*
X81838095Y-56803333D01*
X82076190Y-56803333D01*
X82171428Y-56850952D01*
X82219047Y-56898571D01*
X82266666Y-56993809D01*
X82266666Y-57231904D01*
X82219047Y-57327142D01*
X82171428Y-57374761D01*
X82076190Y-57422380D01*
X81838095Y-57422380D01*
X81742857Y-57374761D01*
X81695238Y-57327142D01*
%TO.C,REF\u002A\u002A*%
X48166666Y-41252380D02*
X47833333Y-40776190D01*
X47595238Y-41252380D02*
X47595238Y-40252380D01*
X47976190Y-40252380D01*
X48071428Y-40300000D01*
X48119047Y-40347619D01*
X48166666Y-40442857D01*
X48166666Y-40585714D01*
X48119047Y-40680952D01*
X48071428Y-40728571D01*
X47976190Y-40776190D01*
X47595238Y-40776190D01*
X48595238Y-40728571D02*
X48928571Y-40728571D01*
X49071428Y-41252380D02*
X48595238Y-41252380D01*
X48595238Y-40252380D01*
X49071428Y-40252380D01*
X49833333Y-40728571D02*
X49500000Y-40728571D01*
X49500000Y-41252380D02*
X49500000Y-40252380D01*
X49976190Y-40252380D01*
X50500000Y-40252380D02*
X50500000Y-40490476D01*
X50261904Y-40395238D02*
X50500000Y-40490476D01*
X50738095Y-40395238D01*
X50357142Y-40680952D02*
X50500000Y-40490476D01*
X50642857Y-40680952D01*
X51261904Y-40252380D02*
X51261904Y-40490476D01*
X51023809Y-40395238D02*
X51261904Y-40490476D01*
X51500000Y-40395238D01*
X51119047Y-40680952D02*
X51261904Y-40490476D01*
X51404761Y-40680952D01*
%TO.C,220om2*%
X54952619Y-62858333D02*
X54905000Y-62810714D01*
X54857380Y-62715476D01*
X54857380Y-62477380D01*
X54905000Y-62382142D01*
X54952619Y-62334523D01*
X55047857Y-62286904D01*
X55143095Y-62286904D01*
X55285952Y-62334523D01*
X55857380Y-62905952D01*
X55857380Y-62286904D01*
X54952619Y-61905952D02*
X54905000Y-61858333D01*
X54857380Y-61763095D01*
X54857380Y-61525000D01*
X54905000Y-61429761D01*
X54952619Y-61382142D01*
X55047857Y-61334523D01*
X55143095Y-61334523D01*
X55285952Y-61382142D01*
X55857380Y-61953571D01*
X55857380Y-61334523D01*
X54857380Y-60715476D02*
X54857380Y-60620238D01*
X54905000Y-60525000D01*
X54952619Y-60477380D01*
X55047857Y-60429761D01*
X55238333Y-60382142D01*
X55476428Y-60382142D01*
X55666904Y-60429761D01*
X55762142Y-60477380D01*
X55809761Y-60525000D01*
X55857380Y-60620238D01*
X55857380Y-60715476D01*
X55809761Y-60810714D01*
X55762142Y-60858333D01*
X55666904Y-60905952D01*
X55476428Y-60953571D01*
X55238333Y-60953571D01*
X55047857Y-60905952D01*
X54952619Y-60858333D01*
X54905000Y-60810714D01*
X54857380Y-60715476D01*
X55857380Y-59810714D02*
X55809761Y-59905952D01*
X55762142Y-59953571D01*
X55666904Y-60001190D01*
X55381190Y-60001190D01*
X55285952Y-59953571D01*
X55238333Y-59905952D01*
X55190714Y-59810714D01*
X55190714Y-59667857D01*
X55238333Y-59572619D01*
X55285952Y-59525000D01*
X55381190Y-59477380D01*
X55666904Y-59477380D01*
X55762142Y-59525000D01*
X55809761Y-59572619D01*
X55857380Y-59667857D01*
X55857380Y-59810714D01*
X55857380Y-59048809D02*
X55190714Y-59048809D01*
X55285952Y-59048809D02*
X55238333Y-59001190D01*
X55190714Y-58905952D01*
X55190714Y-58763095D01*
X55238333Y-58667857D01*
X55333571Y-58620238D01*
X55857380Y-58620238D01*
X55333571Y-58620238D02*
X55238333Y-58572619D01*
X55190714Y-58477380D01*
X55190714Y-58334523D01*
X55238333Y-58239285D01*
X55333571Y-58191666D01*
X55857380Y-58191666D01*
X54952619Y-57763095D02*
X54905000Y-57715476D01*
X54857380Y-57620238D01*
X54857380Y-57382142D01*
X54905000Y-57286904D01*
X54952619Y-57239285D01*
X55047857Y-57191666D01*
X55143095Y-57191666D01*
X55285952Y-57239285D01*
X55857380Y-57810714D01*
X55857380Y-57191666D01*
%TO.C,200om1*%
X56427619Y-62858333D02*
X56380000Y-62810714D01*
X56332380Y-62715476D01*
X56332380Y-62477380D01*
X56380000Y-62382142D01*
X56427619Y-62334523D01*
X56522857Y-62286904D01*
X56618095Y-62286904D01*
X56760952Y-62334523D01*
X57332380Y-62905952D01*
X57332380Y-62286904D01*
X56332380Y-61667857D02*
X56332380Y-61572619D01*
X56380000Y-61477380D01*
X56427619Y-61429761D01*
X56522857Y-61382142D01*
X56713333Y-61334523D01*
X56951428Y-61334523D01*
X57141904Y-61382142D01*
X57237142Y-61429761D01*
X57284761Y-61477380D01*
X57332380Y-61572619D01*
X57332380Y-61667857D01*
X57284761Y-61763095D01*
X57237142Y-61810714D01*
X57141904Y-61858333D01*
X56951428Y-61905952D01*
X56713333Y-61905952D01*
X56522857Y-61858333D01*
X56427619Y-61810714D01*
X56380000Y-61763095D01*
X56332380Y-61667857D01*
X56332380Y-60715476D02*
X56332380Y-60620238D01*
X56380000Y-60525000D01*
X56427619Y-60477380D01*
X56522857Y-60429761D01*
X56713333Y-60382142D01*
X56951428Y-60382142D01*
X57141904Y-60429761D01*
X57237142Y-60477380D01*
X57284761Y-60525000D01*
X57332380Y-60620238D01*
X57332380Y-60715476D01*
X57284761Y-60810714D01*
X57237142Y-60858333D01*
X57141904Y-60905952D01*
X56951428Y-60953571D01*
X56713333Y-60953571D01*
X56522857Y-60905952D01*
X56427619Y-60858333D01*
X56380000Y-60810714D01*
X56332380Y-60715476D01*
X57332380Y-59810714D02*
X57284761Y-59905952D01*
X57237142Y-59953571D01*
X57141904Y-60001190D01*
X56856190Y-60001190D01*
X56760952Y-59953571D01*
X56713333Y-59905952D01*
X56665714Y-59810714D01*
X56665714Y-59667857D01*
X56713333Y-59572619D01*
X56760952Y-59525000D01*
X56856190Y-59477380D01*
X57141904Y-59477380D01*
X57237142Y-59525000D01*
X57284761Y-59572619D01*
X57332380Y-59667857D01*
X57332380Y-59810714D01*
X57332380Y-59048809D02*
X56665714Y-59048809D01*
X56760952Y-59048809D02*
X56713333Y-59001190D01*
X56665714Y-58905952D01*
X56665714Y-58763095D01*
X56713333Y-58667857D01*
X56808571Y-58620238D01*
X57332380Y-58620238D01*
X56808571Y-58620238D02*
X56713333Y-58572619D01*
X56665714Y-58477380D01*
X56665714Y-58334523D01*
X56713333Y-58239285D01*
X56808571Y-58191666D01*
X57332380Y-58191666D01*
X57332380Y-57191666D02*
X57332380Y-57763095D01*
X57332380Y-57477380D02*
X56332380Y-57477380D01*
X56475238Y-57572619D01*
X56570476Y-57667857D01*
X56618095Y-57763095D01*
%TO.C,R2*%
X80622380Y-62966666D02*
X80146190Y-63300000D01*
X80622380Y-63538095D02*
X79622380Y-63538095D01*
X79622380Y-63157142D01*
X79670000Y-63061904D01*
X79717619Y-63014285D01*
X79812857Y-62966666D01*
X79955714Y-62966666D01*
X80050952Y-63014285D01*
X80098571Y-63061904D01*
X80146190Y-63157142D01*
X80146190Y-63538095D01*
X79717619Y-62585714D02*
X79670000Y-62538095D01*
X79622380Y-62442857D01*
X79622380Y-62204761D01*
X79670000Y-62109523D01*
X79717619Y-62061904D01*
X79812857Y-62014285D01*
X79908095Y-62014285D01*
X80050952Y-62061904D01*
X80622380Y-62633333D01*
X80622380Y-62014285D01*
%TO.C,REF\u002A\u002A*%
X96166666Y-63252380D02*
X95833333Y-62776190D01*
X95595238Y-63252380D02*
X95595238Y-62252380D01*
X95976190Y-62252380D01*
X96071428Y-62300000D01*
X96119047Y-62347619D01*
X96166666Y-62442857D01*
X96166666Y-62585714D01*
X96119047Y-62680952D01*
X96071428Y-62728571D01*
X95976190Y-62776190D01*
X95595238Y-62776190D01*
X96595238Y-62728571D02*
X96928571Y-62728571D01*
X97071428Y-63252380D02*
X96595238Y-63252380D01*
X96595238Y-62252380D01*
X97071428Y-62252380D01*
X97833333Y-62728571D02*
X97500000Y-62728571D01*
X97500000Y-63252380D02*
X97500000Y-62252380D01*
X97976190Y-62252380D01*
X98500000Y-62252380D02*
X98500000Y-62490476D01*
X98261904Y-62395238D02*
X98500000Y-62490476D01*
X98738095Y-62395238D01*
X98357142Y-62680952D02*
X98500000Y-62490476D01*
X98642857Y-62680952D01*
X99261904Y-62252380D02*
X99261904Y-62490476D01*
X99023809Y-62395238D02*
X99261904Y-62490476D01*
X99500000Y-62395238D01*
X99119047Y-62680952D02*
X99261904Y-62490476D01*
X99404761Y-62680952D01*
D11*
%TO.C,D1*%
X62300000Y-52650000D02*
X57400000Y-52650000D01*
X57400000Y-56250000D02*
X62300000Y-56250000D01*
X62300000Y-56250000D02*
X62300000Y-55350000D01*
%TO.C,220om3*%
X91572500Y-60204724D02*
X91572500Y-59695276D01*
X90527500Y-60204724D02*
X90527500Y-59695276D01*
%TO.C,R1*%
X66422500Y-63054724D02*
X66422500Y-62545276D01*
X65377500Y-63054724D02*
X65377500Y-62545276D01*
%TO.C,U1*%
X69440000Y-49800000D02*
X69440000Y-53250000D01*
X79560000Y-49800000D02*
X79560000Y-47850000D01*
X69440000Y-49800000D02*
X69440000Y-47850000D01*
X79560000Y-49800000D02*
X79560000Y-51750000D01*
%TO.C,220om4*%
X93072500Y-59695276D02*
X93072500Y-60204724D01*
X92027500Y-59695276D02*
X92027500Y-60204724D01*
%TO.C,J2*%
X64620000Y-60420000D02*
X67280000Y-60420000D01*
X64620000Y-60480000D02*
X67280000Y-60480000D01*
X64620000Y-60420000D02*
X64620000Y-60480000D01*
X67280000Y-60420000D02*
X67280000Y-60480000D01*
X64620000Y-59150000D02*
X64620000Y-57820000D01*
X64620000Y-57820000D02*
X65950000Y-57820000D01*
%TO.C,J6*%
X85370000Y-58930000D02*
X86700000Y-58930000D01*
X85370000Y-61530000D02*
X88030000Y-61530000D01*
X85370000Y-64130000D02*
X88030000Y-64130000D01*
X85370000Y-61530000D02*
X85370000Y-64130000D01*
X85370000Y-60260000D02*
X85370000Y-58930000D01*
X88030000Y-61530000D02*
X88030000Y-64130000D01*
%TO.C,220om1*%
X53022500Y-60274724D02*
X53022500Y-59765276D01*
X51977500Y-60274724D02*
X51977500Y-59765276D01*
%TO.C,J4*%
X51230000Y-48185000D02*
X48570000Y-48185000D01*
X51230000Y-58405000D02*
X51230000Y-48185000D01*
X51230000Y-58405000D02*
X48570000Y-58405000D01*
X51230000Y-59675000D02*
X51230000Y-61005000D01*
X51230000Y-61005000D02*
X49900000Y-61005000D01*
X48570000Y-58405000D02*
X48570000Y-48185000D01*
%TO.C,J1*%
X95270000Y-49525000D02*
X95270000Y-48195000D01*
X95270000Y-48195000D02*
X96600000Y-48195000D01*
X95270000Y-61015000D02*
X97930000Y-61015000D01*
X97930000Y-50795000D02*
X97930000Y-61015000D01*
X95270000Y-50795000D02*
X97930000Y-50795000D01*
X95270000Y-50795000D02*
X95270000Y-61015000D01*
%TO.C,200om2*%
X94572500Y-59695276D02*
X94572500Y-60204724D01*
X93527500Y-59695276D02*
X93527500Y-60204724D01*
%TO.C,J3*%
X58370000Y-60225000D02*
X58370000Y-58895000D01*
X58370000Y-61495000D02*
X61030000Y-61495000D01*
X58370000Y-64095000D02*
X61030000Y-64095000D01*
X61030000Y-61495000D02*
X61030000Y-64095000D01*
X58370000Y-61495000D02*
X58370000Y-64095000D01*
X58370000Y-58895000D02*
X59700000Y-58895000D01*
%TO.C,D2*%
X89100000Y-52650000D02*
X84200000Y-52650000D01*
X84200000Y-52650000D02*
X84200000Y-53550000D01*
X84200000Y-56250000D02*
X89100000Y-56250000D01*
%TO.C,J5*%
X80270000Y-59300000D02*
X80270000Y-57970000D01*
X80270000Y-60570000D02*
X80270000Y-60630000D01*
X80270000Y-57970000D02*
X81600000Y-57970000D01*
X80270000Y-60630000D02*
X82930000Y-60630000D01*
X80270000Y-60570000D02*
X82930000Y-60570000D01*
X82930000Y-60570000D02*
X82930000Y-60630000D01*
%TO.C,220om2*%
X54497500Y-59770276D02*
X54497500Y-60279724D01*
X53452500Y-59770276D02*
X53452500Y-60279724D01*
%TO.C,200om1*%
X55972500Y-59770276D02*
X55972500Y-60279724D01*
X54927500Y-59770276D02*
X54927500Y-60279724D01*
%TO.C,R2*%
X81077500Y-63054724D02*
X81077500Y-62545276D01*
X82122500Y-63054724D02*
X82122500Y-62545276D01*
%TD*%
M02*
