%TF.GenerationSoftware,KiCad,Pcbnew,(6.0.2)*%
%TF.CreationDate,2022-03-27T20:09:04+02:00*%
%TF.ProjectId,pcb,7063622e-6b69-4636-9164-5f7063625858,rev?*%
%TF.SameCoordinates,Original*%
%TF.FileFunction,Copper,L1,Top*%
%TF.FilePolarity,Positive*%
%FSLAX46Y46*%
G04 Gerber Fmt 4.6, Leading zero omitted, Abs format (unit mm)*
G04 Created by KiCad (PCBNEW (6.0.2)) date 2022-03-27 20:09:04*
%MOMM*%
%LPD*%
G01*
G04 APERTURE LIST*
G04 Aperture macros list*
%AMRoundRect*
0 Rectangle with rounded corners*
0 $1 Rounding radius*
0 $2 $3 $4 $5 $6 $7 $8 $9 X,Y pos of 4 corners*
0 Add a 4 corners polygon primitive as box body*
4,1,4,$2,$3,$4,$5,$6,$7,$8,$9,$2,$3,0*
0 Add four circle primitives for the rounded corners*
1,1,$1+$1,$2,$3*
1,1,$1+$1,$4,$5*
1,1,$1+$1,$6,$7*
1,1,$1+$1,$8,$9*
0 Add four rect primitives between the rounded corners*
20,1,$1+$1,$2,$3,$4,$5,0*
20,1,$1+$1,$4,$5,$6,$7,0*
20,1,$1+$1,$6,$7,$8,$9,0*
20,1,$1+$1,$8,$9,$2,$3,0*%
G04 Aperture macros list end*
%TA.AperFunction,NonConductor*%
%ADD10C,0.200000*%
%TD*%
%TA.AperFunction,SMDPad,CuDef*%
%ADD11R,1.300000X0.700000*%
%TD*%
%TA.AperFunction,SMDPad,CuDef*%
%ADD12RoundRect,0.237500X0.237500X-0.250000X0.237500X0.250000X-0.237500X0.250000X-0.237500X-0.250000X0*%
%TD*%
%TA.AperFunction,SMDPad,CuDef*%
%ADD13RoundRect,0.150000X0.150000X-0.725000X0.150000X0.725000X-0.150000X0.725000X-0.150000X-0.725000X0*%
%TD*%
%TA.AperFunction,SMDPad,CuDef*%
%ADD14RoundRect,0.237500X-0.237500X0.250000X-0.237500X-0.250000X0.237500X-0.250000X0.237500X0.250000X0*%
%TD*%
%TA.AperFunction,ComponentPad*%
%ADD15R,1.700000X1.700000*%
%TD*%
%TA.AperFunction,ComponentPad*%
%ADD16O,1.700000X1.700000*%
%TD*%
%TA.AperFunction,ViaPad*%
%ADD17C,1.000000*%
%TD*%
%TA.AperFunction,Conductor*%
%ADD18C,0.635000*%
%TD*%
%TA.AperFunction,Conductor*%
%ADD19C,2.540000*%
%TD*%
%TA.AperFunction,Conductor*%
%ADD20C,1.270000*%
%TD*%
G04 APERTURE END LIST*
D10*
X69042415Y-51720000D02*
G75*
G03*
X69042415Y-51720000I-332415J0D01*
G01*
D11*
%TO.P,D1,1,RK*%
%TO.N,Net-(U1-Pad3)*%
X61300000Y-55550000D03*
%TO.P,D1,2,GK*%
%TO.N,Net-(U1-Pad2)*%
X61300000Y-54450000D03*
%TO.P,D1,3,BK*%
%TO.N,Net-(U1-Pad1)*%
X61300000Y-53350000D03*
%TO.P,D1,4,BA*%
%TO.N,Net-(220om1-Pad2)*%
X58200000Y-53350000D03*
%TO.P,D1,5,GA*%
%TO.N,Net-(220om2-Pad1)*%
X58200000Y-54450000D03*
%TO.P,D1,6,RA*%
%TO.N,Net-(200om1-Pad1)*%
X58200000Y-55550000D03*
%TD*%
D12*
%TO.P,220om3,1*%
%TO.N,+3V3*%
X91050000Y-60862500D03*
%TO.P,220om3,2*%
%TO.N,Net-(220om3-Pad2)*%
X91050000Y-59037500D03*
%TD*%
%TO.P,R1,1*%
%TO.N,+3V3*%
X65900000Y-63712500D03*
%TO.P,R1,2*%
%TO.N,Net-(J2-Pad1)*%
X65900000Y-61887500D03*
%TD*%
D13*
%TO.P,U1,1,QB*%
%TO.N,Net-(U1-Pad1)*%
X70055000Y-52375000D03*
%TO.P,U1,2,QC*%
%TO.N,Net-(U1-Pad2)*%
X71325000Y-52375000D03*
%TO.P,U1,3,QD*%
%TO.N,Net-(U1-Pad3)*%
X72595000Y-52375000D03*
%TO.P,U1,4,QE*%
%TO.N,unconnected-(U1-Pad4)*%
X73865000Y-52375000D03*
%TO.P,U1,5,QF*%
%TO.N,Net-(D2-Pad3)*%
X75135000Y-52375000D03*
%TO.P,U1,6,QG*%
%TO.N,Net-(U1-Pad6)*%
X76405000Y-52375000D03*
%TO.P,U1,7,QH*%
%TO.N,Net-(D2-Pad1)*%
X77675000Y-52375000D03*
%TO.P,U1,8,GND*%
%TO.N,GND*%
X78945000Y-52375000D03*
%TO.P,U1,9,QH'*%
%TO.N,Net-(J1-Pad1)*%
X78945000Y-47225000D03*
%TO.P,U1,10,~{SRCLR}*%
%TO.N,+3V3*%
X77675000Y-47225000D03*
%TO.P,U1,11,SRCLK*%
%TO.N,Net-(J1-Pad2)*%
X76405000Y-47225000D03*
%TO.P,U1,12,RCLK*%
%TO.N,Net-(J1-Pad3)*%
X75135000Y-47225000D03*
%TO.P,U1,13,~{OE}*%
%TO.N,GND*%
X73865000Y-47225000D03*
%TO.P,U1,14,SER*%
%TO.N,Net-(J4-Pad5)*%
X72595000Y-47225000D03*
%TO.P,U1,15,QA*%
%TO.N,unconnected-(U1-Pad15)*%
X71325000Y-47225000D03*
%TO.P,U1,16,VCC*%
%TO.N,+3V3*%
X70055000Y-47225000D03*
%TD*%
D14*
%TO.P,220om4,1*%
%TO.N,Net-(220om4-Pad1)*%
X92550000Y-59037500D03*
%TO.P,220om4,2*%
%TO.N,+3V3*%
X92550000Y-60862500D03*
%TD*%
D15*
%TO.P,J2,1,Pin_1*%
%TO.N,Net-(J2-Pad1)*%
X65950000Y-59150000D03*
%TD*%
%TO.P,J6,1,Pin_1*%
%TO.N,GND*%
X86700000Y-60260000D03*
D16*
%TO.P,J6,2,Pin_2*%
%TO.N,Net-(J5-Pad1)*%
X86700000Y-62800000D03*
%TD*%
D12*
%TO.P,220om1,1*%
%TO.N,+3V3*%
X52500000Y-60932500D03*
%TO.P,220om1,2*%
%TO.N,Net-(220om1-Pad2)*%
X52500000Y-59107500D03*
%TD*%
D15*
%TO.P,J4,1,Pin_1*%
%TO.N,+3V3*%
X49900000Y-59675000D03*
D16*
%TO.P,J4,2,Pin_2*%
%TO.N,GND*%
X49900000Y-57135000D03*
%TO.P,J4,3,Pin_3*%
%TO.N,Net-(J1-Pad3)*%
X49900000Y-54595000D03*
%TO.P,J4,4,Pin_4*%
%TO.N,Net-(J1-Pad2)*%
X49900000Y-52055000D03*
%TO.P,J4,5,Pin_5*%
%TO.N,Net-(J4-Pad5)*%
X49900000Y-49515000D03*
%TD*%
D15*
%TO.P,J1,1,Pin_1*%
%TO.N,Net-(J1-Pad1)*%
X96600000Y-49525000D03*
D16*
%TO.P,J1,2,Pin_2*%
%TO.N,Net-(J1-Pad2)*%
X96600000Y-52065000D03*
%TO.P,J1,3,Pin_3*%
%TO.N,Net-(J1-Pad3)*%
X96600000Y-54605000D03*
%TO.P,J1,4,Pin_4*%
%TO.N,GND*%
X96600000Y-57145000D03*
%TO.P,J1,5,Pin_5*%
%TO.N,+3V3*%
X96600000Y-59685000D03*
%TD*%
D14*
%TO.P,200om2,1*%
%TO.N,Net-(200om2-Pad1)*%
X94050000Y-59037500D03*
%TO.P,200om2,2*%
%TO.N,+3V3*%
X94050000Y-60862500D03*
%TD*%
D15*
%TO.P,J3,1,Pin_1*%
%TO.N,GND*%
X59700000Y-60225000D03*
D16*
%TO.P,J3,2,Pin_2*%
%TO.N,Net-(J2-Pad1)*%
X59700000Y-62765000D03*
%TD*%
D11*
%TO.P,D2,1,RK*%
%TO.N,Net-(D2-Pad1)*%
X85200000Y-53350000D03*
%TO.P,D2,2,GK*%
%TO.N,Net-(U1-Pad6)*%
X85200000Y-54450000D03*
%TO.P,D2,3,BK*%
%TO.N,Net-(D2-Pad3)*%
X85200000Y-55550000D03*
%TO.P,D2,4,BA*%
%TO.N,Net-(220om3-Pad2)*%
X88300000Y-55550000D03*
%TO.P,D2,5,GA*%
%TO.N,Net-(220om4-Pad1)*%
X88300000Y-54450000D03*
%TO.P,D2,6,RA*%
%TO.N,Net-(200om2-Pad1)*%
X88300000Y-53350000D03*
%TD*%
D15*
%TO.P,J5,1,Pin_1*%
%TO.N,Net-(J5-Pad1)*%
X81600000Y-59300000D03*
%TD*%
D14*
%TO.P,220om2,1*%
%TO.N,Net-(220om2-Pad1)*%
X53975000Y-59112500D03*
%TO.P,220om2,2*%
%TO.N,+3V3*%
X53975000Y-60937500D03*
%TD*%
%TO.P,200om1,1*%
%TO.N,Net-(200om1-Pad1)*%
X55450000Y-59112500D03*
%TO.P,200om1,2*%
%TO.N,+3V3*%
X55450000Y-60937500D03*
%TD*%
D12*
%TO.P,R2,1*%
%TO.N,+3V3*%
X81600000Y-63712500D03*
%TO.P,R2,2*%
%TO.N,Net-(J5-Pad1)*%
X81600000Y-61887500D03*
%TD*%
D17*
%TO.N,GND*%
X81500000Y-51100000D03*
X73870000Y-45030000D03*
%TO.N,+3V3*%
X74000000Y-60000000D03*
X67425000Y-47225000D03*
X67425000Y-49325000D03*
%TO.N,Net-(J1-Pad2)*%
X78000000Y-43300000D03*
%TO.N,Net-(J1-Pad3)*%
X75800000Y-43900000D03*
%TD*%
D18*
%TO.N,GND*%
X81500000Y-52010000D02*
X81500000Y-51100000D01*
X73870000Y-45030000D02*
X73865000Y-45035000D01*
X73865000Y-45035000D02*
X73865000Y-47225000D01*
X79260000Y-52970000D02*
X80540000Y-52970000D01*
X80540000Y-52970000D02*
X81500000Y-52010000D01*
%TO.N,Net-(200om1-Pad1)*%
X56360000Y-55550000D02*
X55450000Y-56460000D01*
X58200000Y-55550000D02*
X56360000Y-55550000D01*
X55450000Y-56460000D02*
X55450000Y-59112500D01*
%TO.N,Net-(200om2-Pad1)*%
X94050000Y-56700000D02*
X94050000Y-59037500D01*
X90700000Y-53350000D02*
X94050000Y-56700000D01*
X88300000Y-53350000D02*
X90700000Y-53350000D01*
D19*
%TO.N,+3V3*%
X53447500Y-63352500D02*
X54397500Y-64302500D01*
D20*
X67450000Y-47200000D02*
X69700000Y-47200000D01*
D19*
X54397500Y-64302500D02*
X49900000Y-59805000D01*
X58200000Y-66150000D02*
X65550000Y-66150000D01*
D18*
X55450000Y-60937500D02*
X53975000Y-60937500D01*
D20*
X65900000Y-65800000D02*
X65550000Y-66150000D01*
D19*
X54075000Y-62025000D02*
X53975000Y-62025000D01*
X92800000Y-64300000D02*
X93000000Y-64500000D01*
X81550000Y-66150000D02*
X91350000Y-66150000D01*
D18*
X76600000Y-49400000D02*
X67350000Y-49400000D01*
D20*
X67425000Y-47225000D02*
X67450000Y-47200000D01*
D19*
X91350000Y-66150000D02*
X93000000Y-64500000D01*
X92800000Y-64300000D02*
X92800000Y-61550000D01*
D18*
X77675000Y-47225000D02*
X77675000Y-48325000D01*
D19*
X49970000Y-59875000D02*
X52047500Y-61952500D01*
X91350000Y-66150000D02*
X94375000Y-63125000D01*
X65550000Y-66150000D02*
X73950000Y-66150000D01*
D18*
X92775000Y-61525000D02*
X94375000Y-63125000D01*
X52500000Y-60932500D02*
X53970000Y-60932500D01*
D19*
X91350000Y-66150000D02*
X96600000Y-60900000D01*
D18*
X77675000Y-48325000D02*
X77650000Y-48350000D01*
D20*
X81600000Y-63712500D02*
X81600000Y-66100000D01*
D18*
X92550000Y-61300000D02*
X92775000Y-61525000D01*
D19*
X92800000Y-61550000D02*
X92775000Y-61525000D01*
X58200000Y-66150000D02*
X54075000Y-62025000D01*
D20*
X65900000Y-63712500D02*
X65900000Y-65800000D01*
D18*
X55450000Y-60937500D02*
X55450000Y-61350000D01*
D20*
X81600000Y-66100000D02*
X81550000Y-66150000D01*
D19*
X73950000Y-66150000D02*
X81550000Y-66150000D01*
X52047500Y-61952500D02*
X53447500Y-63352500D01*
D20*
X73950000Y-60050000D02*
X73950000Y-66150000D01*
D18*
X94050000Y-60862500D02*
X92550000Y-60862500D01*
X91625000Y-61525000D02*
X92775000Y-61525000D01*
X77650000Y-48350000D02*
X76600000Y-49400000D01*
X91050000Y-60950000D02*
X91625000Y-61525000D01*
X91050000Y-60862500D02*
X91050000Y-60950000D01*
D19*
X94375000Y-63125000D02*
X96600000Y-60900000D01*
X54397500Y-64302500D02*
X56245000Y-66150000D01*
D18*
X94375000Y-61187500D02*
X94050000Y-60862500D01*
D19*
X96600000Y-60900000D02*
X96600000Y-59685000D01*
X49900000Y-59805000D02*
X49900000Y-59675000D01*
X56245000Y-66150000D02*
X58200000Y-66150000D01*
D18*
X53975000Y-60937500D02*
X53975000Y-62025000D01*
X91050000Y-60862500D02*
X92550000Y-60862500D01*
X92550000Y-60862500D02*
X92550000Y-61300000D01*
X55450000Y-61350000D02*
X53447500Y-63352500D01*
X52500000Y-61500000D02*
X52047500Y-61952500D01*
X94375000Y-63125000D02*
X94375000Y-61187500D01*
X53975000Y-62825000D02*
X53447500Y-63352500D01*
X53975000Y-62025000D02*
X53975000Y-62825000D01*
X52500000Y-60932500D02*
X52500000Y-61500000D01*
X53970000Y-60932500D02*
X53975000Y-60937500D01*
%TO.N,Net-(220om1-Pad2)*%
X55310000Y-53350000D02*
X52500000Y-56160000D01*
X58200000Y-53350000D02*
X55310000Y-53350000D01*
X52500000Y-56160000D02*
X52500000Y-59107500D01*
%TO.N,Net-(220om2-Pad1)*%
X58200000Y-54450000D02*
X55800000Y-54450000D01*
X53975000Y-56275000D02*
X53975000Y-59112500D01*
X55800000Y-54450000D02*
X53975000Y-56275000D01*
%TO.N,Net-(220om3-Pad2)*%
X91050000Y-57000000D02*
X91050000Y-59037500D01*
X89600000Y-55550000D02*
X91050000Y-57000000D01*
X88300000Y-55550000D02*
X89600000Y-55550000D01*
%TO.N,Net-(220om4-Pad1)*%
X90150000Y-54450000D02*
X92550000Y-56850000D01*
X88300000Y-54450000D02*
X90150000Y-54450000D01*
X92550000Y-56850000D02*
X92550000Y-59037500D01*
%TO.N,Net-(J5-Pad1)*%
X84087500Y-61887500D02*
X85000000Y-62800000D01*
X81600000Y-61887500D02*
X84087500Y-61887500D01*
X81600000Y-61887500D02*
X81600000Y-59300000D01*
X85000000Y-62800000D02*
X86700000Y-62800000D01*
%TO.N,Net-(J1-Pad1)*%
X91700000Y-43500000D02*
X96600000Y-48400000D01*
X96600000Y-48400000D02*
X96600000Y-49525000D01*
X78945000Y-47225000D02*
X78945000Y-44655000D01*
X80100000Y-43500000D02*
X91700000Y-43500000D01*
X78945000Y-44655000D02*
X80100000Y-43500000D01*
%TO.N,Net-(J1-Pad2)*%
X78000000Y-43300000D02*
X76405000Y-44895000D01*
X76405000Y-44895000D02*
X76405000Y-47225000D01*
%TO.N,Net-(J1-Pad3)*%
X75135000Y-44565000D02*
X75135000Y-47225000D01*
X75800000Y-43900000D02*
X75135000Y-44565000D01*
%TO.N,Net-(J2-Pad1)*%
X65900000Y-61887500D02*
X63412500Y-61887500D01*
X62535000Y-62765000D02*
X59700000Y-62765000D01*
X65900000Y-61887500D02*
X65900000Y-59200000D01*
X65900000Y-59200000D02*
X65950000Y-59150000D01*
X63412500Y-61887500D02*
X62535000Y-62765000D01*
%TO.N,Net-(J4-Pad5)*%
X56015000Y-43400000D02*
X71000000Y-43400000D01*
X72595000Y-44995000D02*
X72595000Y-47225000D01*
X71000000Y-43400000D02*
X72595000Y-44995000D01*
X49900000Y-49515000D02*
X56015000Y-43400000D01*
%TO.N,Net-(U1-Pad1)*%
X70055000Y-52375000D02*
X70055000Y-53305000D01*
X70020000Y-53350000D02*
X61300000Y-53350000D01*
X70060000Y-53310000D02*
X70020000Y-53350000D01*
X70055000Y-53305000D02*
X70060000Y-53310000D01*
%TO.N,Net-(U1-Pad2)*%
X71325000Y-52375000D02*
X71325000Y-53875000D01*
X71325000Y-53875000D02*
X70750000Y-54450000D01*
X70750000Y-54450000D02*
X61300000Y-54450000D01*
%TO.N,Net-(U1-Pad3)*%
X72595000Y-54995000D02*
X72600000Y-55000000D01*
X72600000Y-53400000D02*
X72600000Y-52380000D01*
X72600000Y-52380000D02*
X72595000Y-52375000D01*
X72600000Y-55000000D02*
X72050000Y-55550000D01*
X72050000Y-55550000D02*
X61300000Y-55550000D01*
X72595000Y-52375000D02*
X72595000Y-54995000D01*
%TO.N,Net-(U1-Pad6)*%
X85200000Y-54450000D02*
X82940000Y-54450000D01*
X77250000Y-55200000D02*
X76405000Y-54355000D01*
X82940000Y-54450000D02*
X82190000Y-55200000D01*
X82190000Y-55200000D02*
X77250000Y-55200000D01*
X76405000Y-54355000D02*
X76405000Y-52375000D01*
%TO.N,Net-(D2-Pad1)*%
X77900000Y-54150000D02*
X77675000Y-53925000D01*
X81310000Y-54150000D02*
X77900000Y-54150000D01*
X82110000Y-53350000D02*
X81310000Y-54150000D01*
X85200000Y-53350000D02*
X82110000Y-53350000D01*
X77675000Y-53925000D02*
X77675000Y-52375000D01*
%TO.N,Net-(D2-Pad3)*%
X85200000Y-55550000D02*
X83620000Y-55550000D01*
X83620000Y-55550000D02*
X82770000Y-56400000D01*
X75135000Y-55035000D02*
X75135000Y-52375000D01*
X82770000Y-56400000D02*
X76500000Y-56400000D01*
X76500000Y-56400000D02*
X75135000Y-55035000D01*
%TD*%
M02*
