%TF.GenerationSoftware,KiCad,Pcbnew,(6.0.2)*%
%TF.CreationDate,2022-03-27T20:09:04+02:00*%
%TF.ProjectId,pcb,7063622e-6b69-4636-9164-5f7063625858,rev?*%
%TF.SameCoordinates,Original*%
%TF.FileFunction,Copper,L2,Bot*%
%TF.FilePolarity,Positive*%
%FSLAX46Y46*%
G04 Gerber Fmt 4.6, Leading zero omitted, Abs format (unit mm)*
G04 Created by KiCad (PCBNEW (6.0.2)) date 2022-03-27 20:09:04*
%MOMM*%
%LPD*%
G01*
G04 APERTURE LIST*
%TA.AperFunction,ComponentPad*%
%ADD10R,1.700000X1.700000*%
%TD*%
%TA.AperFunction,ComponentPad*%
%ADD11O,1.700000X1.700000*%
%TD*%
%TA.AperFunction,ViaPad*%
%ADD12C,1.000000*%
%TD*%
%TA.AperFunction,Conductor*%
%ADD13C,1.270000*%
%TD*%
%TA.AperFunction,Conductor*%
%ADD14C,0.635000*%
%TD*%
G04 APERTURE END LIST*
D10*
%TO.P,J2,1,Pin_1*%
%TO.N,Net-(J2-Pad1)*%
X65950000Y-59150000D03*
%TD*%
%TO.P,J6,1,Pin_1*%
%TO.N,GND*%
X86700000Y-60260000D03*
D11*
%TO.P,J6,2,Pin_2*%
%TO.N,Net-(J5-Pad1)*%
X86700000Y-62800000D03*
%TD*%
D10*
%TO.P,J4,1,Pin_1*%
%TO.N,+3V3*%
X49900000Y-59675000D03*
D11*
%TO.P,J4,2,Pin_2*%
%TO.N,GND*%
X49900000Y-57135000D03*
%TO.P,J4,3,Pin_3*%
%TO.N,Net-(J1-Pad3)*%
X49900000Y-54595000D03*
%TO.P,J4,4,Pin_4*%
%TO.N,Net-(J1-Pad2)*%
X49900000Y-52055000D03*
%TO.P,J4,5,Pin_5*%
%TO.N,Net-(J4-Pad5)*%
X49900000Y-49515000D03*
%TD*%
D10*
%TO.P,J1,1,Pin_1*%
%TO.N,Net-(J1-Pad1)*%
X96600000Y-49525000D03*
D11*
%TO.P,J1,2,Pin_2*%
%TO.N,Net-(J1-Pad2)*%
X96600000Y-52065000D03*
%TO.P,J1,3,Pin_3*%
%TO.N,Net-(J1-Pad3)*%
X96600000Y-54605000D03*
%TO.P,J1,4,Pin_4*%
%TO.N,GND*%
X96600000Y-57145000D03*
%TO.P,J1,5,Pin_5*%
%TO.N,+3V3*%
X96600000Y-59685000D03*
%TD*%
D10*
%TO.P,J3,1,Pin_1*%
%TO.N,GND*%
X59700000Y-60225000D03*
D11*
%TO.P,J3,2,Pin_2*%
%TO.N,Net-(J2-Pad1)*%
X59700000Y-62765000D03*
%TD*%
D10*
%TO.P,J5,1,Pin_1*%
%TO.N,Net-(J5-Pad1)*%
X81600000Y-59300000D03*
%TD*%
D12*
%TO.N,GND*%
X81500000Y-51100000D03*
X73870000Y-45030000D03*
%TO.N,+3V3*%
X74000000Y-60000000D03*
X67425000Y-47225000D03*
X67425000Y-49325000D03*
%TO.N,Net-(J1-Pad2)*%
X78000000Y-43300000D03*
%TO.N,Net-(J1-Pad3)*%
X75800000Y-43900000D03*
%TD*%
D13*
%TO.N,GND*%
X88480000Y-57145000D02*
X87445000Y-57145000D01*
X76200000Y-50800000D02*
X73900000Y-48500000D01*
D14*
X81200000Y-50800000D02*
X81500000Y-51100000D01*
D13*
X96600000Y-57145000D02*
X88480000Y-57145000D01*
X62225000Y-60225000D02*
X64800000Y-62800000D01*
X59700000Y-60225000D02*
X62225000Y-60225000D01*
X86700000Y-60260000D02*
X86700000Y-58925000D01*
X64800000Y-62800000D02*
X83400000Y-62800000D01*
X57910000Y-57135000D02*
X57910000Y-58435000D01*
X49900000Y-57135000D02*
X57910000Y-57135000D01*
D14*
X81500000Y-51200000D02*
X81500000Y-51100000D01*
D13*
X87445000Y-57145000D02*
X81500000Y-51200000D01*
X57910000Y-58435000D02*
X59700000Y-60225000D01*
X81200000Y-50800000D02*
X76200000Y-50800000D01*
X85940000Y-60260000D02*
X86700000Y-60260000D01*
X83400000Y-62800000D02*
X85940000Y-60260000D01*
X86700000Y-58925000D02*
X88480000Y-57145000D01*
%TO.N,+3V3*%
X67425000Y-47225000D02*
X67425000Y-49325000D01*
X67425000Y-53625000D02*
X73800000Y-60000000D01*
X67425000Y-49325000D02*
X67425000Y-53625000D01*
D14*
X73800000Y-60000000D02*
X74000000Y-60000000D01*
%TO.N,Net-(J1-Pad2)*%
X78000000Y-43300000D02*
X77400000Y-42700000D01*
X77400000Y-42700000D02*
X60700000Y-42700000D01*
X87735000Y-43200000D02*
X96600000Y-52065000D01*
X78100000Y-43200000D02*
X87735000Y-43200000D01*
X78000000Y-43300000D02*
X78100000Y-43200000D01*
X51345000Y-52055000D02*
X49900000Y-52055000D01*
X60700000Y-42700000D02*
X51345000Y-52055000D01*
%TO.N,Net-(J1-Pad3)*%
X76300000Y-44400000D02*
X86395000Y-44400000D01*
X75600000Y-43700000D02*
X63400000Y-43700000D01*
X75800000Y-43900000D02*
X76300000Y-44400000D01*
X86395000Y-44400000D02*
X96600000Y-54605000D01*
X52505000Y-54595000D02*
X49900000Y-54595000D01*
X75800000Y-43900000D02*
X75600000Y-43700000D01*
X63400000Y-43700000D02*
X52505000Y-54595000D01*
%TD*%
%TA.AperFunction,Conductor*%
%TO.N,GND*%
G36*
X59587791Y-42428002D02*
G01*
X59634284Y-42481658D01*
X59644388Y-42551932D01*
X59614894Y-42616512D01*
X59608765Y-42623095D01*
X51087021Y-51144839D01*
X51024709Y-51178865D01*
X50953894Y-51173800D01*
X50904732Y-51140543D01*
X50833151Y-51061875D01*
X50833142Y-51061866D01*
X50829670Y-51058051D01*
X50825619Y-51054852D01*
X50825615Y-51054848D01*
X50658414Y-50922800D01*
X50658410Y-50922798D01*
X50654359Y-50919598D01*
X50613053Y-50896796D01*
X50563084Y-50846364D01*
X50548312Y-50776921D01*
X50573428Y-50710516D01*
X50600780Y-50683909D01*
X50644603Y-50652650D01*
X50779860Y-50556173D01*
X50938096Y-50398489D01*
X50997594Y-50315689D01*
X51065435Y-50221277D01*
X51068453Y-50217077D01*
X51167430Y-50016811D01*
X51232370Y-49803069D01*
X51261529Y-49581590D01*
X51263156Y-49515000D01*
X51244852Y-49292361D01*
X51190431Y-49075702D01*
X51101354Y-48870840D01*
X50980014Y-48683277D01*
X50829670Y-48518051D01*
X50825619Y-48514852D01*
X50825615Y-48514848D01*
X50658414Y-48382800D01*
X50658410Y-48382798D01*
X50654359Y-48379598D01*
X50458789Y-48271638D01*
X50453920Y-48269914D01*
X50453916Y-48269912D01*
X50253087Y-48198795D01*
X50253083Y-48198794D01*
X50248212Y-48197069D01*
X50243119Y-48196162D01*
X50243116Y-48196161D01*
X50033373Y-48158800D01*
X50033367Y-48158799D01*
X50028284Y-48157894D01*
X49954452Y-48156992D01*
X49810081Y-48155228D01*
X49810079Y-48155228D01*
X49804911Y-48155165D01*
X49584091Y-48188955D01*
X49371756Y-48258357D01*
X49173607Y-48361507D01*
X49169474Y-48364610D01*
X49169471Y-48364612D01*
X49073455Y-48436703D01*
X48994965Y-48495635D01*
X48840629Y-48657138D01*
X48714743Y-48841680D01*
X48620688Y-49044305D01*
X48560989Y-49259570D01*
X48537251Y-49481695D01*
X48537548Y-49486848D01*
X48537548Y-49486851D01*
X48543011Y-49581590D01*
X48550110Y-49704715D01*
X48551247Y-49709761D01*
X48551248Y-49709767D01*
X48571119Y-49797939D01*
X48599222Y-49922639D01*
X48683266Y-50129616D01*
X48799987Y-50320088D01*
X48946250Y-50488938D01*
X49118126Y-50631632D01*
X49188595Y-50672811D01*
X49191445Y-50674476D01*
X49240169Y-50726114D01*
X49253240Y-50795897D01*
X49226509Y-50861669D01*
X49186055Y-50895027D01*
X49173607Y-50901507D01*
X49169474Y-50904610D01*
X49169471Y-50904612D01*
X49145247Y-50922800D01*
X48994965Y-51035635D01*
X48840629Y-51197138D01*
X48714743Y-51381680D01*
X48620688Y-51584305D01*
X48560989Y-51799570D01*
X48537251Y-52021695D01*
X48537548Y-52026848D01*
X48537548Y-52026851D01*
X48539748Y-52065000D01*
X48550110Y-52244715D01*
X48551247Y-52249761D01*
X48551248Y-52249767D01*
X48573373Y-52347939D01*
X48599222Y-52462639D01*
X48645083Y-52575581D01*
X48674287Y-52647502D01*
X48683266Y-52669616D01*
X48708420Y-52710663D01*
X48784730Y-52835190D01*
X48799987Y-52860088D01*
X48946250Y-53028938D01*
X49118126Y-53171632D01*
X49146568Y-53188252D01*
X49191445Y-53214476D01*
X49240169Y-53266114D01*
X49253240Y-53335897D01*
X49226509Y-53401669D01*
X49186055Y-53435027D01*
X49173607Y-53441507D01*
X49169474Y-53444610D01*
X49169471Y-53444612D01*
X48999100Y-53572530D01*
X48994965Y-53575635D01*
X48967048Y-53604848D01*
X48849554Y-53727799D01*
X48840629Y-53737138D01*
X48837715Y-53741410D01*
X48837714Y-53741411D01*
X48835578Y-53744542D01*
X48714743Y-53921680D01*
X48712564Y-53926375D01*
X48664006Y-54030985D01*
X48620688Y-54124305D01*
X48560989Y-54339570D01*
X48537251Y-54561695D01*
X48537548Y-54566848D01*
X48537548Y-54566851D01*
X48539748Y-54605000D01*
X48550110Y-54784715D01*
X48551247Y-54789761D01*
X48551248Y-54789767D01*
X48553502Y-54799767D01*
X48599222Y-55002639D01*
X48645083Y-55115581D01*
X48674287Y-55187502D01*
X48683266Y-55209616D01*
X48708420Y-55250663D01*
X48784730Y-55375190D01*
X48799987Y-55400088D01*
X48946250Y-55568938D01*
X49118126Y-55711632D01*
X49135239Y-55721632D01*
X49191955Y-55754774D01*
X49240679Y-55806412D01*
X49253750Y-55876195D01*
X49227019Y-55941967D01*
X49186562Y-55975327D01*
X49178457Y-55979546D01*
X49169738Y-55985036D01*
X48999433Y-56112905D01*
X48991726Y-56119748D01*
X48844590Y-56273717D01*
X48838104Y-56281727D01*
X48718098Y-56457649D01*
X48713000Y-56466623D01*
X48623338Y-56659783D01*
X48619775Y-56669470D01*
X48564389Y-56869183D01*
X48565912Y-56877607D01*
X48578292Y-56881000D01*
X51218344Y-56881000D01*
X51231875Y-56877027D01*
X51233180Y-56867947D01*
X51191214Y-56700875D01*
X51187894Y-56691124D01*
X51102972Y-56495814D01*
X51098105Y-56486739D01*
X50982426Y-56307926D01*
X50976136Y-56299757D01*
X50832806Y-56142240D01*
X50825273Y-56135215D01*
X50658139Y-56003222D01*
X50649556Y-55997520D01*
X50612602Y-55977120D01*
X50562631Y-55926687D01*
X50547859Y-55857245D01*
X50572975Y-55790839D01*
X50600327Y-55764232D01*
X50660050Y-55721632D01*
X50779860Y-55636173D01*
X50938096Y-55478489D01*
X50941112Y-55474292D01*
X50941117Y-55474286D01*
X50941704Y-55473469D01*
X50942025Y-55473218D01*
X50944465Y-55470352D01*
X50945057Y-55470856D01*
X50997701Y-55429824D01*
X51044023Y-55421000D01*
X52464967Y-55421000D01*
X52475512Y-55421442D01*
X52525300Y-55425623D01*
X52602743Y-55415289D01*
X52605743Y-55414927D01*
X52647498Y-55410391D01*
X52676634Y-55407226D01*
X52676636Y-55407226D01*
X52683417Y-55406489D01*
X52689883Y-55404313D01*
X52692233Y-55403796D01*
X52692783Y-55403699D01*
X52693550Y-55403520D01*
X52694085Y-55403365D01*
X52696432Y-55402789D01*
X52703190Y-55401887D01*
X52776542Y-55375189D01*
X52779443Y-55374174D01*
X52847039Y-55351425D01*
X52847046Y-55351422D01*
X52853511Y-55349246D01*
X52859360Y-55345731D01*
X52861553Y-55344718D01*
X52862068Y-55344506D01*
X52862766Y-55344173D01*
X52863267Y-55343900D01*
X52865421Y-55342840D01*
X52871834Y-55340506D01*
X52937802Y-55298641D01*
X52940394Y-55297041D01*
X53001502Y-55260324D01*
X53007344Y-55256814D01*
X53012295Y-55252133D01*
X53014231Y-55250663D01*
X53015162Y-55250015D01*
X53018996Y-55247115D01*
X53023364Y-55244343D01*
X53027464Y-55240677D01*
X53079387Y-55188754D01*
X53081909Y-55186301D01*
X53132782Y-55138193D01*
X53132784Y-55138191D01*
X53137740Y-55133504D01*
X53141574Y-55127863D01*
X53145703Y-55123011D01*
X53152560Y-55115581D01*
X54613080Y-53655061D01*
X66276994Y-53655061D01*
X66287399Y-53742973D01*
X66287736Y-53746186D01*
X66295831Y-53834279D01*
X66297399Y-53839839D01*
X66298061Y-53843412D01*
X66300250Y-53854415D01*
X66301018Y-53858028D01*
X66301697Y-53863765D01*
X66327938Y-53948276D01*
X66328854Y-53951373D01*
X66352877Y-54036549D01*
X66355435Y-54041737D01*
X66356760Y-54045188D01*
X66360901Y-54055566D01*
X66362304Y-54058953D01*
X66364018Y-54064473D01*
X66366709Y-54069587D01*
X66366709Y-54069588D01*
X66405198Y-54142745D01*
X66406695Y-54145681D01*
X66445829Y-54225037D01*
X66449287Y-54229668D01*
X66451250Y-54232871D01*
X66457173Y-54242258D01*
X66459182Y-54245351D01*
X66461871Y-54250463D01*
X66516656Y-54319956D01*
X66518627Y-54322526D01*
X66568116Y-54388801D01*
X66568123Y-54388808D01*
X66571573Y-54393429D01*
X66575807Y-54397343D01*
X66575809Y-54397345D01*
X66631973Y-54449262D01*
X66635539Y-54452692D01*
X73029123Y-60846276D01*
X73031356Y-60848133D01*
X73031358Y-60848135D01*
X73070971Y-60881081D01*
X73149539Y-60946425D01*
X73255959Y-61006023D01*
X73327516Y-61046097D01*
X73332903Y-61049114D01*
X73338370Y-61050970D01*
X73338375Y-61050972D01*
X73526442Y-61114812D01*
X73526447Y-61114813D01*
X73531911Y-61116668D01*
X73537620Y-61117496D01*
X73537625Y-61117497D01*
X73635904Y-61131746D01*
X73739897Y-61146825D01*
X73880567Y-61141298D01*
X73944123Y-61138801D01*
X73944125Y-61138801D01*
X73949896Y-61138574D01*
X73955527Y-61137300D01*
X73955533Y-61137299D01*
X74149245Y-61093466D01*
X74149246Y-61093466D01*
X74154875Y-61092192D01*
X74160175Y-61089915D01*
X74160178Y-61089914D01*
X74342660Y-61011514D01*
X74342661Y-61011514D01*
X74347969Y-61009233D01*
X74522711Y-60892473D01*
X74526845Y-60888446D01*
X74526851Y-60888441D01*
X74626665Y-60791207D01*
X74637013Y-60782172D01*
X74693985Y-60737661D01*
X74693993Y-60737653D01*
X74698847Y-60733861D01*
X74828078Y-60584145D01*
X74925769Y-60412179D01*
X74988197Y-60224513D01*
X74991529Y-60198134D01*
X80241500Y-60198134D01*
X80248255Y-60260316D01*
X80299385Y-60396705D01*
X80386739Y-60513261D01*
X80503295Y-60600615D01*
X80639684Y-60651745D01*
X80701866Y-60658500D01*
X82498134Y-60658500D01*
X82560316Y-60651745D01*
X82696705Y-60600615D01*
X82813261Y-60513261D01*
X82900615Y-60396705D01*
X82951745Y-60260316D01*
X82958500Y-60198134D01*
X82958500Y-59987885D01*
X85342000Y-59987885D01*
X85346475Y-60003124D01*
X85347865Y-60004329D01*
X85355548Y-60006000D01*
X86427885Y-60006000D01*
X86443124Y-60001525D01*
X86444329Y-60000135D01*
X86446000Y-59992452D01*
X86446000Y-59987885D01*
X86954000Y-59987885D01*
X86958475Y-60003124D01*
X86959865Y-60004329D01*
X86967548Y-60006000D01*
X88039884Y-60006000D01*
X88055123Y-60001525D01*
X88056328Y-60000135D01*
X88057999Y-59992452D01*
X88057999Y-59651695D01*
X95237251Y-59651695D01*
X95237548Y-59656848D01*
X95237548Y-59656851D01*
X95243011Y-59751590D01*
X95250110Y-59874715D01*
X95251247Y-59879761D01*
X95251248Y-59879767D01*
X95271119Y-59967939D01*
X95299222Y-60092639D01*
X95383266Y-60299616D01*
X95385965Y-60304020D01*
X95495935Y-60483475D01*
X95499987Y-60490088D01*
X95646250Y-60658938D01*
X95818126Y-60801632D01*
X96011000Y-60914338D01*
X96219692Y-60994030D01*
X96224760Y-60995061D01*
X96224763Y-60995062D01*
X96305628Y-61011514D01*
X96438597Y-61038567D01*
X96443772Y-61038757D01*
X96443774Y-61038757D01*
X96656673Y-61046564D01*
X96656677Y-61046564D01*
X96661837Y-61046753D01*
X96666957Y-61046097D01*
X96666959Y-61046097D01*
X96878288Y-61019025D01*
X96878289Y-61019025D01*
X96883416Y-61018368D01*
X96888366Y-61016883D01*
X97092429Y-60955661D01*
X97092434Y-60955659D01*
X97097384Y-60954174D01*
X97297994Y-60855896D01*
X97479860Y-60726173D01*
X97638096Y-60568489D01*
X97673915Y-60518642D01*
X97765435Y-60391277D01*
X97768453Y-60387077D01*
X97834985Y-60252460D01*
X97865136Y-60191453D01*
X97865137Y-60191451D01*
X97867430Y-60186811D01*
X97922365Y-60006000D01*
X97930865Y-59978023D01*
X97930865Y-59978021D01*
X97932370Y-59973069D01*
X97961529Y-59751590D01*
X97963156Y-59685000D01*
X97944852Y-59462361D01*
X97890431Y-59245702D01*
X97801354Y-59040840D01*
X97720299Y-58915548D01*
X97682822Y-58857617D01*
X97682820Y-58857614D01*
X97680014Y-58853277D01*
X97529670Y-58688051D01*
X97525619Y-58684852D01*
X97525615Y-58684848D01*
X97358414Y-58552800D01*
X97358410Y-58552798D01*
X97354359Y-58549598D01*
X97312569Y-58526529D01*
X97262598Y-58476097D01*
X97247826Y-58406654D01*
X97272942Y-58340248D01*
X97300294Y-58313641D01*
X97475328Y-58188792D01*
X97483200Y-58182139D01*
X97634052Y-58031812D01*
X97640730Y-58023965D01*
X97765003Y-57851020D01*
X97770313Y-57842183D01*
X97864670Y-57651267D01*
X97868469Y-57641672D01*
X97930377Y-57437910D01*
X97932555Y-57427837D01*
X97933986Y-57416962D01*
X97931775Y-57402778D01*
X97918617Y-57399000D01*
X95283225Y-57399000D01*
X95269694Y-57402973D01*
X95268257Y-57412966D01*
X95298565Y-57547446D01*
X95301645Y-57557275D01*
X95381770Y-57754603D01*
X95386413Y-57763794D01*
X95497694Y-57945388D01*
X95503777Y-57953699D01*
X95643213Y-58114667D01*
X95650580Y-58121883D01*
X95814434Y-58257916D01*
X95822881Y-58263831D01*
X95891969Y-58304203D01*
X95940693Y-58355842D01*
X95953764Y-58425625D01*
X95927033Y-58491396D01*
X95886584Y-58524752D01*
X95873607Y-58531507D01*
X95869474Y-58534610D01*
X95869471Y-58534612D01*
X95699100Y-58662530D01*
X95694965Y-58665635D01*
X95540629Y-58827138D01*
X95537715Y-58831410D01*
X95537714Y-58831411D01*
X95488421Y-58903672D01*
X95414743Y-59011680D01*
X95320688Y-59214305D01*
X95260989Y-59429570D01*
X95237251Y-59651695D01*
X88057999Y-59651695D01*
X88057999Y-59365331D01*
X88057629Y-59358510D01*
X88052105Y-59307648D01*
X88048479Y-59292396D01*
X88003324Y-59171946D01*
X87994786Y-59156351D01*
X87918285Y-59054276D01*
X87905724Y-59041715D01*
X87803649Y-58965214D01*
X87788054Y-58956676D01*
X87667606Y-58911522D01*
X87652351Y-58907895D01*
X87601486Y-58902369D01*
X87594672Y-58902000D01*
X86972115Y-58902000D01*
X86956876Y-58906475D01*
X86955671Y-58907865D01*
X86954000Y-58915548D01*
X86954000Y-59987885D01*
X86446000Y-59987885D01*
X86446000Y-58920116D01*
X86441525Y-58904877D01*
X86440135Y-58903672D01*
X86432452Y-58902001D01*
X85805331Y-58902001D01*
X85798510Y-58902371D01*
X85747648Y-58907895D01*
X85732396Y-58911521D01*
X85611946Y-58956676D01*
X85596351Y-58965214D01*
X85494276Y-59041715D01*
X85481715Y-59054276D01*
X85405214Y-59156351D01*
X85396676Y-59171946D01*
X85351522Y-59292394D01*
X85347895Y-59307649D01*
X85342369Y-59358514D01*
X85342000Y-59365328D01*
X85342000Y-59987885D01*
X82958500Y-59987885D01*
X82958500Y-58401866D01*
X82951745Y-58339684D01*
X82900615Y-58203295D01*
X82813261Y-58086739D01*
X82696705Y-57999385D01*
X82560316Y-57948255D01*
X82498134Y-57941500D01*
X80701866Y-57941500D01*
X80639684Y-57948255D01*
X80503295Y-57999385D01*
X80386739Y-58086739D01*
X80299385Y-58203295D01*
X80248255Y-58339684D01*
X80241500Y-58401866D01*
X80241500Y-60198134D01*
X74991529Y-60198134D01*
X75012985Y-60028295D01*
X75013380Y-60000000D01*
X74994080Y-59803167D01*
X74936916Y-59613831D01*
X74844066Y-59439204D01*
X74755269Y-59330328D01*
X74722960Y-59290713D01*
X74722957Y-59290710D01*
X74719065Y-59285938D01*
X74703002Y-59272649D01*
X74631164Y-59213220D01*
X74622384Y-59205230D01*
X68605405Y-53188252D01*
X68571379Y-53125940D01*
X68568500Y-53099157D01*
X68568500Y-47171684D01*
X68554169Y-47015721D01*
X68497123Y-46813451D01*
X68404171Y-46624963D01*
X68278427Y-46456571D01*
X68124101Y-46313914D01*
X67946362Y-46201769D01*
X67751163Y-46123892D01*
X67745506Y-46122767D01*
X67745500Y-46122765D01*
X67550707Y-46084019D01*
X67550705Y-46084019D01*
X67545040Y-46082892D01*
X67539265Y-46082816D01*
X67539261Y-46082816D01*
X67434001Y-46081438D01*
X67334898Y-46080141D01*
X67329201Y-46081120D01*
X67329200Y-46081120D01*
X67133469Y-46114753D01*
X67127772Y-46115732D01*
X66930601Y-46188472D01*
X66749988Y-46295926D01*
X66591981Y-46434494D01*
X66461872Y-46599537D01*
X66459181Y-46604653D01*
X66459179Y-46604655D01*
X66445769Y-46630144D01*
X66364018Y-46785527D01*
X66301696Y-46986234D01*
X66281500Y-47156874D01*
X66281500Y-53582195D01*
X66281230Y-53590436D01*
X66276994Y-53655061D01*
X54613080Y-53655061D01*
X63705235Y-44562905D01*
X63767547Y-44528879D01*
X63794330Y-44526000D01*
X74948340Y-44526000D01*
X75016461Y-44546002D01*
X75047086Y-44573737D01*
X75071035Y-44603953D01*
X75075728Y-44607947D01*
X75075729Y-44607948D01*
X75216706Y-44727928D01*
X75221650Y-44732136D01*
X75394294Y-44828624D01*
X75400154Y-44830528D01*
X75576534Y-44887837D01*
X75576537Y-44887838D01*
X75582392Y-44889740D01*
X75588505Y-44890469D01*
X75594532Y-44891794D01*
X75593975Y-44894327D01*
X75648864Y-44917816D01*
X75657759Y-44925901D01*
X75687622Y-44955764D01*
X75694764Y-44963530D01*
X75727015Y-45001693D01*
X75732439Y-45005840D01*
X75732440Y-45005841D01*
X75789059Y-45049130D01*
X75791462Y-45051013D01*
X75852351Y-45099969D01*
X75858469Y-45103006D01*
X75860485Y-45104295D01*
X75860954Y-45104623D01*
X75861607Y-45105030D01*
X75862102Y-45105302D01*
X75864161Y-45106549D01*
X75869586Y-45110697D01*
X75875773Y-45113582D01*
X75940359Y-45143699D01*
X75943130Y-45145033D01*
X76013102Y-45179767D01*
X76019727Y-45181419D01*
X76021994Y-45182253D01*
X76022519Y-45182472D01*
X76023223Y-45182721D01*
X76023773Y-45182883D01*
X76026057Y-45183661D01*
X76032239Y-45186543D01*
X76038897Y-45188031D01*
X76038905Y-45188034D01*
X76108458Y-45203581D01*
X76111454Y-45204289D01*
X76180615Y-45221533D01*
X76180618Y-45221533D01*
X76187238Y-45223184D01*
X76194059Y-45223375D01*
X76196456Y-45223703D01*
X76197570Y-45223904D01*
X76202344Y-45224566D01*
X76207384Y-45225693D01*
X76212875Y-45226000D01*
X76286289Y-45226000D01*
X76289807Y-45226049D01*
X76366635Y-45228195D01*
X76373342Y-45226916D01*
X76379677Y-45226406D01*
X76389784Y-45226000D01*
X86000669Y-45226000D01*
X86068790Y-45246002D01*
X86089764Y-45262905D01*
X95210232Y-54383373D01*
X95244258Y-54445685D01*
X95246424Y-54485857D01*
X95237251Y-54571695D01*
X95237548Y-54576848D01*
X95237548Y-54576851D01*
X95243011Y-54671590D01*
X95250110Y-54794715D01*
X95251247Y-54799761D01*
X95251248Y-54799767D01*
X95271119Y-54887939D01*
X95299222Y-55012639D01*
X95337461Y-55106811D01*
X95377262Y-55204829D01*
X95383266Y-55219616D01*
X95402292Y-55250663D01*
X95478602Y-55375190D01*
X95499987Y-55410088D01*
X95646250Y-55578938D01*
X95818126Y-55721632D01*
X95874842Y-55754774D01*
X95891955Y-55764774D01*
X95940679Y-55816412D01*
X95953750Y-55886195D01*
X95927019Y-55951967D01*
X95886562Y-55985327D01*
X95878457Y-55989546D01*
X95869738Y-55995036D01*
X95699433Y-56122905D01*
X95691726Y-56129748D01*
X95544590Y-56283717D01*
X95538104Y-56291727D01*
X95418098Y-56467649D01*
X95413000Y-56476623D01*
X95323338Y-56669783D01*
X95319775Y-56679470D01*
X95264389Y-56879183D01*
X95265912Y-56887607D01*
X95278292Y-56891000D01*
X97918344Y-56891000D01*
X97931875Y-56887027D01*
X97933180Y-56877947D01*
X97891214Y-56710875D01*
X97887894Y-56701124D01*
X97802972Y-56505814D01*
X97798105Y-56496739D01*
X97682426Y-56317926D01*
X97676136Y-56309757D01*
X97532806Y-56152240D01*
X97525273Y-56145215D01*
X97358139Y-56013222D01*
X97349556Y-56007520D01*
X97312602Y-55987120D01*
X97262631Y-55936687D01*
X97247859Y-55867245D01*
X97272975Y-55800839D01*
X97300327Y-55774232D01*
X97327606Y-55754774D01*
X97479860Y-55646173D01*
X97638096Y-55488489D01*
X97642661Y-55482137D01*
X97765435Y-55311277D01*
X97768453Y-55307077D01*
X97793295Y-55256814D01*
X97865136Y-55111453D01*
X97865137Y-55111451D01*
X97867430Y-55106811D01*
X97932370Y-54893069D01*
X97961529Y-54671590D01*
X97963156Y-54605000D01*
X97944852Y-54382361D01*
X97890431Y-54165702D01*
X97801354Y-53960840D01*
X97732505Y-53854415D01*
X97682822Y-53777617D01*
X97682820Y-53777614D01*
X97680014Y-53773277D01*
X97529670Y-53608051D01*
X97525619Y-53604852D01*
X97525615Y-53604848D01*
X97358414Y-53472800D01*
X97358410Y-53472798D01*
X97354359Y-53469598D01*
X97313053Y-53446796D01*
X97263084Y-53396364D01*
X97248312Y-53326921D01*
X97273428Y-53260516D01*
X97300780Y-53233909D01*
X97388089Y-53171632D01*
X97479860Y-53106173D01*
X97638096Y-52948489D01*
X97642661Y-52942137D01*
X97765435Y-52771277D01*
X97768453Y-52767077D01*
X97793295Y-52716814D01*
X97865136Y-52571453D01*
X97865137Y-52571451D01*
X97867430Y-52566811D01*
X97932370Y-52353069D01*
X97961529Y-52131590D01*
X97963156Y-52065000D01*
X97944852Y-51842361D01*
X97890431Y-51625702D01*
X97801354Y-51420840D01*
X97680014Y-51233277D01*
X97676532Y-51229450D01*
X97532798Y-51071488D01*
X97501746Y-51007642D01*
X97510141Y-50937143D01*
X97555317Y-50882375D01*
X97581761Y-50868706D01*
X97688297Y-50828767D01*
X97696705Y-50825615D01*
X97813261Y-50738261D01*
X97900615Y-50621705D01*
X97951745Y-50485316D01*
X97958500Y-50423134D01*
X97958500Y-48626866D01*
X97951745Y-48564684D01*
X97900615Y-48428295D01*
X97813261Y-48311739D01*
X97696705Y-48224385D01*
X97560316Y-48173255D01*
X97498134Y-48166500D01*
X95701866Y-48166500D01*
X95639684Y-48173255D01*
X95503295Y-48224385D01*
X95386739Y-48311739D01*
X95299385Y-48428295D01*
X95248255Y-48564684D01*
X95241500Y-48626866D01*
X95241500Y-49234169D01*
X95221498Y-49302290D01*
X95167842Y-49348783D01*
X95097568Y-49358887D01*
X95032988Y-49329393D01*
X95026405Y-49323264D01*
X88347385Y-42644245D01*
X88340241Y-42636477D01*
X88322368Y-42615327D01*
X88293677Y-42550386D01*
X88304650Y-42480243D01*
X88351804Y-42427167D01*
X88418607Y-42408000D01*
X96572667Y-42408000D01*
X96640788Y-42428002D01*
X96687281Y-42481658D01*
X96697385Y-42551932D01*
X96667891Y-42616512D01*
X96638502Y-42641433D01*
X96551624Y-42694672D01*
X96359102Y-42859102D01*
X96194672Y-43051624D01*
X96062384Y-43267498D01*
X95965495Y-43501409D01*
X95964340Y-43506221D01*
X95907952Y-43741095D01*
X95906391Y-43747597D01*
X95886526Y-44000000D01*
X95906391Y-44252403D01*
X95965495Y-44498591D01*
X95967388Y-44503162D01*
X95967389Y-44503164D01*
X96007135Y-44599118D01*
X96062384Y-44732502D01*
X96194672Y-44948376D01*
X96359102Y-45140898D01*
X96551624Y-45305328D01*
X96767498Y-45437616D01*
X96772068Y-45439509D01*
X96772072Y-45439511D01*
X96926761Y-45503585D01*
X97001409Y-45534505D01*
X97086032Y-45554821D01*
X97242784Y-45592454D01*
X97242790Y-45592455D01*
X97247597Y-45593609D01*
X97347416Y-45601465D01*
X97434345Y-45608307D01*
X97434352Y-45608307D01*
X97436801Y-45608500D01*
X97563199Y-45608500D01*
X97565648Y-45608307D01*
X97565655Y-45608307D01*
X97652584Y-45601465D01*
X97752403Y-45593609D01*
X97757210Y-45592455D01*
X97757216Y-45592454D01*
X97913968Y-45554821D01*
X97998591Y-45534505D01*
X98073239Y-45503585D01*
X98227928Y-45439511D01*
X98227932Y-45439509D01*
X98232502Y-45437616D01*
X98300165Y-45396152D01*
X98368699Y-45377614D01*
X98436375Y-45399070D01*
X98481708Y-45453709D01*
X98492000Y-45503585D01*
X98492000Y-64496415D01*
X98471998Y-64564536D01*
X98418342Y-64611029D01*
X98348068Y-64621133D01*
X98300165Y-64603848D01*
X98236722Y-64564970D01*
X98232502Y-64562384D01*
X98227932Y-64560491D01*
X98227928Y-64560489D01*
X98003164Y-64467389D01*
X98003162Y-64467388D01*
X97998591Y-64465495D01*
X97913968Y-64445179D01*
X97757216Y-64407546D01*
X97757210Y-64407545D01*
X97752403Y-64406391D01*
X97652584Y-64398535D01*
X97565655Y-64391693D01*
X97565648Y-64391693D01*
X97563199Y-64391500D01*
X97436801Y-64391500D01*
X97434352Y-64391693D01*
X97434345Y-64391693D01*
X97347416Y-64398535D01*
X97247597Y-64406391D01*
X97242790Y-64407545D01*
X97242784Y-64407546D01*
X97086032Y-64445179D01*
X97001409Y-64465495D01*
X96996838Y-64467388D01*
X96996836Y-64467389D01*
X96772072Y-64560489D01*
X96772068Y-64560491D01*
X96767498Y-64562384D01*
X96551624Y-64694672D01*
X96359102Y-64859102D01*
X96194672Y-65051624D01*
X96062384Y-65267498D01*
X95965495Y-65501409D01*
X95906391Y-65747597D01*
X95886526Y-66000000D01*
X95906391Y-66252403D01*
X95965495Y-66498591D01*
X96062384Y-66732502D01*
X96194672Y-66948376D01*
X96359102Y-67140898D01*
X96508000Y-67268069D01*
X96510482Y-67270189D01*
X96549291Y-67329640D01*
X96549797Y-67400634D01*
X96511841Y-67460633D01*
X96447473Y-67490586D01*
X96428651Y-67492000D01*
X50571349Y-67492000D01*
X50503228Y-67471998D01*
X50456735Y-67418342D01*
X50446631Y-67348068D01*
X50476125Y-67283488D01*
X50489518Y-67270189D01*
X50492001Y-67268069D01*
X50640898Y-67140898D01*
X50805328Y-66948376D01*
X50937616Y-66732502D01*
X51034505Y-66498591D01*
X51093609Y-66252403D01*
X51113474Y-66000000D01*
X51093609Y-65747597D01*
X51034505Y-65501409D01*
X50937616Y-65267498D01*
X50805328Y-65051624D01*
X50640898Y-64859102D01*
X50448376Y-64694672D01*
X50232502Y-64562384D01*
X50227932Y-64560491D01*
X50227928Y-64560489D01*
X50003164Y-64467389D01*
X50003162Y-64467388D01*
X49998591Y-64465495D01*
X49913968Y-64445179D01*
X49757216Y-64407546D01*
X49757210Y-64407545D01*
X49752403Y-64406391D01*
X49652584Y-64398535D01*
X49565655Y-64391693D01*
X49565648Y-64391693D01*
X49563199Y-64391500D01*
X49436801Y-64391500D01*
X49434352Y-64391693D01*
X49434345Y-64391693D01*
X49347416Y-64398535D01*
X49247597Y-64406391D01*
X49242790Y-64407545D01*
X49242784Y-64407546D01*
X49086032Y-64445179D01*
X49001409Y-64465495D01*
X48996838Y-64467388D01*
X48996836Y-64467389D01*
X48772072Y-64560489D01*
X48772068Y-64560491D01*
X48767498Y-64562384D01*
X48551624Y-64694672D01*
X48359102Y-64859102D01*
X48355894Y-64862858D01*
X48229811Y-65010482D01*
X48170360Y-65049291D01*
X48099366Y-65049797D01*
X48039367Y-65011841D01*
X48009414Y-64947473D01*
X48008000Y-64928651D01*
X48008000Y-62731695D01*
X58337251Y-62731695D01*
X58337548Y-62736848D01*
X58337548Y-62736851D01*
X58343011Y-62831590D01*
X58350110Y-62954715D01*
X58351247Y-62959761D01*
X58351248Y-62959767D01*
X58359136Y-62994767D01*
X58399222Y-63172639D01*
X58483266Y-63379616D01*
X58599987Y-63570088D01*
X58746250Y-63738938D01*
X58918126Y-63881632D01*
X59111000Y-63994338D01*
X59319692Y-64074030D01*
X59324760Y-64075061D01*
X59324763Y-64075062D01*
X59432017Y-64096883D01*
X59538597Y-64118567D01*
X59543772Y-64118757D01*
X59543774Y-64118757D01*
X59756673Y-64126564D01*
X59756677Y-64126564D01*
X59761837Y-64126753D01*
X59766957Y-64126097D01*
X59766959Y-64126097D01*
X59978288Y-64099025D01*
X59978289Y-64099025D01*
X59983416Y-64098368D01*
X59988366Y-64096883D01*
X60192429Y-64035661D01*
X60192434Y-64035659D01*
X60197384Y-64034174D01*
X60397994Y-63935896D01*
X60579860Y-63806173D01*
X60738096Y-63648489D01*
X60797594Y-63565689D01*
X60865435Y-63471277D01*
X60868453Y-63467077D01*
X60952581Y-63296857D01*
X60965136Y-63271453D01*
X60965137Y-63271451D01*
X60967430Y-63266811D01*
X61032370Y-63053069D01*
X61061529Y-62831590D01*
X61063115Y-62766695D01*
X85337251Y-62766695D01*
X85337548Y-62771848D01*
X85337548Y-62771851D01*
X85343011Y-62866590D01*
X85350110Y-62989715D01*
X85351247Y-62994761D01*
X85351248Y-62994767D01*
X85365504Y-63058023D01*
X85399222Y-63207639D01*
X85483266Y-63414616D01*
X85599987Y-63605088D01*
X85746250Y-63773938D01*
X85918126Y-63916632D01*
X86111000Y-64029338D01*
X86319692Y-64109030D01*
X86324760Y-64110061D01*
X86324763Y-64110062D01*
X86432017Y-64131883D01*
X86538597Y-64153567D01*
X86543772Y-64153757D01*
X86543774Y-64153757D01*
X86756673Y-64161564D01*
X86756677Y-64161564D01*
X86761837Y-64161753D01*
X86766957Y-64161097D01*
X86766959Y-64161097D01*
X86978288Y-64134025D01*
X86978289Y-64134025D01*
X86983416Y-64133368D01*
X87006095Y-64126564D01*
X87192429Y-64070661D01*
X87192434Y-64070659D01*
X87197384Y-64069174D01*
X87397994Y-63970896D01*
X87579860Y-63841173D01*
X87738096Y-63683489D01*
X87797594Y-63600689D01*
X87865435Y-63506277D01*
X87868453Y-63502077D01*
X87931343Y-63374829D01*
X87965136Y-63306453D01*
X87965137Y-63306451D01*
X87967430Y-63301811D01*
X87999900Y-63194940D01*
X88030865Y-63093023D01*
X88030865Y-63093021D01*
X88032370Y-63088069D01*
X88061529Y-62866590D01*
X88063156Y-62800000D01*
X88044852Y-62577361D01*
X87990431Y-62360702D01*
X87901354Y-62155840D01*
X87780014Y-61968277D01*
X87776540Y-61964459D01*
X87776533Y-61964450D01*
X87632435Y-61806088D01*
X87601383Y-61742242D01*
X87609779Y-61671744D01*
X87654956Y-61616976D01*
X87681400Y-61603307D01*
X87788052Y-61563325D01*
X87803649Y-61554786D01*
X87905724Y-61478285D01*
X87918285Y-61465724D01*
X87994786Y-61363649D01*
X88003324Y-61348054D01*
X88048478Y-61227606D01*
X88052105Y-61212351D01*
X88057631Y-61161486D01*
X88058000Y-61154672D01*
X88058000Y-60532115D01*
X88053525Y-60516876D01*
X88052135Y-60515671D01*
X88044452Y-60514000D01*
X85360116Y-60514000D01*
X85344877Y-60518475D01*
X85343672Y-60519865D01*
X85342001Y-60527548D01*
X85342001Y-61154669D01*
X85342371Y-61161490D01*
X85347895Y-61212352D01*
X85351521Y-61227604D01*
X85396676Y-61348054D01*
X85405214Y-61363649D01*
X85481715Y-61465724D01*
X85494276Y-61478285D01*
X85596351Y-61554786D01*
X85611946Y-61563324D01*
X85720827Y-61604142D01*
X85777591Y-61646784D01*
X85802291Y-61713345D01*
X85787083Y-61782694D01*
X85767691Y-61809175D01*
X85677647Y-61903401D01*
X85640629Y-61942138D01*
X85514743Y-62126680D01*
X85420688Y-62329305D01*
X85360989Y-62544570D01*
X85337251Y-62766695D01*
X61063115Y-62766695D01*
X61063156Y-62765000D01*
X61044852Y-62542361D01*
X60990431Y-62325702D01*
X60901354Y-62120840D01*
X60788511Y-61946411D01*
X60782822Y-61937617D01*
X60782820Y-61937614D01*
X60780014Y-61933277D01*
X60776540Y-61929459D01*
X60776533Y-61929450D01*
X60632435Y-61771088D01*
X60601383Y-61707242D01*
X60609779Y-61636744D01*
X60654956Y-61581976D01*
X60681400Y-61568307D01*
X60788052Y-61528325D01*
X60803649Y-61519786D01*
X60905724Y-61443285D01*
X60918285Y-61430724D01*
X60994786Y-61328649D01*
X61003324Y-61313054D01*
X61048478Y-61192606D01*
X61052105Y-61177351D01*
X61057631Y-61126486D01*
X61058000Y-61119672D01*
X61058000Y-60497115D01*
X61053525Y-60481876D01*
X61052135Y-60480671D01*
X61044452Y-60479000D01*
X58360116Y-60479000D01*
X58344877Y-60483475D01*
X58343672Y-60484865D01*
X58342001Y-60492548D01*
X58342001Y-61119669D01*
X58342371Y-61126490D01*
X58347895Y-61177352D01*
X58351521Y-61192604D01*
X58396676Y-61313054D01*
X58405214Y-61328649D01*
X58481715Y-61430724D01*
X58494276Y-61443285D01*
X58596351Y-61519786D01*
X58611946Y-61528324D01*
X58720827Y-61569142D01*
X58777591Y-61611784D01*
X58802291Y-61678345D01*
X58787083Y-61747694D01*
X58767691Y-61774175D01*
X58644200Y-61903401D01*
X58640629Y-61907138D01*
X58514743Y-62091680D01*
X58420688Y-62294305D01*
X58360989Y-62509570D01*
X58337251Y-62731695D01*
X48008000Y-62731695D01*
X48008000Y-60573134D01*
X48541500Y-60573134D01*
X48548255Y-60635316D01*
X48599385Y-60771705D01*
X48686739Y-60888261D01*
X48803295Y-60975615D01*
X48939684Y-61026745D01*
X49001866Y-61033500D01*
X50798134Y-61033500D01*
X50860316Y-61026745D01*
X50996705Y-60975615D01*
X51113261Y-60888261D01*
X51200615Y-60771705D01*
X51251745Y-60635316D01*
X51258500Y-60573134D01*
X51258500Y-60048134D01*
X64591500Y-60048134D01*
X64598255Y-60110316D01*
X64649385Y-60246705D01*
X64736739Y-60363261D01*
X64853295Y-60450615D01*
X64989684Y-60501745D01*
X65051866Y-60508500D01*
X66848134Y-60508500D01*
X66910316Y-60501745D01*
X67046705Y-60450615D01*
X67163261Y-60363261D01*
X67250615Y-60246705D01*
X67301745Y-60110316D01*
X67308500Y-60048134D01*
X67308500Y-58251866D01*
X67301745Y-58189684D01*
X67250615Y-58053295D01*
X67163261Y-57936739D01*
X67046705Y-57849385D01*
X66910316Y-57798255D01*
X66848134Y-57791500D01*
X65051866Y-57791500D01*
X64989684Y-57798255D01*
X64853295Y-57849385D01*
X64736739Y-57936739D01*
X64649385Y-58053295D01*
X64598255Y-58189684D01*
X64591500Y-58251866D01*
X64591500Y-60048134D01*
X51258500Y-60048134D01*
X51258500Y-59952885D01*
X58342000Y-59952885D01*
X58346475Y-59968124D01*
X58347865Y-59969329D01*
X58355548Y-59971000D01*
X59427885Y-59971000D01*
X59443124Y-59966525D01*
X59444329Y-59965135D01*
X59446000Y-59957452D01*
X59446000Y-59952885D01*
X59954000Y-59952885D01*
X59958475Y-59968124D01*
X59959865Y-59969329D01*
X59967548Y-59971000D01*
X61039884Y-59971000D01*
X61055123Y-59966525D01*
X61056328Y-59965135D01*
X61057999Y-59957452D01*
X61057999Y-59330331D01*
X61057629Y-59323510D01*
X61052105Y-59272648D01*
X61048479Y-59257396D01*
X61003324Y-59136946D01*
X60994786Y-59121351D01*
X60918285Y-59019276D01*
X60905724Y-59006715D01*
X60803649Y-58930214D01*
X60788054Y-58921676D01*
X60667606Y-58876522D01*
X60652351Y-58872895D01*
X60601486Y-58867369D01*
X60594672Y-58867000D01*
X59972115Y-58867000D01*
X59956876Y-58871475D01*
X59955671Y-58872865D01*
X59954000Y-58880548D01*
X59954000Y-59952885D01*
X59446000Y-59952885D01*
X59446000Y-58885116D01*
X59441525Y-58869877D01*
X59440135Y-58868672D01*
X59432452Y-58867001D01*
X58805331Y-58867001D01*
X58798510Y-58867371D01*
X58747648Y-58872895D01*
X58732396Y-58876521D01*
X58611946Y-58921676D01*
X58596351Y-58930214D01*
X58494276Y-59006715D01*
X58481715Y-59019276D01*
X58405214Y-59121351D01*
X58396676Y-59136946D01*
X58351522Y-59257394D01*
X58347895Y-59272649D01*
X58342369Y-59323514D01*
X58342000Y-59330328D01*
X58342000Y-59952885D01*
X51258500Y-59952885D01*
X51258500Y-58776866D01*
X51251745Y-58714684D01*
X51200615Y-58578295D01*
X51113261Y-58461739D01*
X50996705Y-58374385D01*
X50904140Y-58339684D01*
X50877687Y-58329767D01*
X50820923Y-58287125D01*
X50796223Y-58220564D01*
X50811430Y-58151215D01*
X50832977Y-58122535D01*
X50934052Y-58021812D01*
X50940730Y-58013965D01*
X51065003Y-57841020D01*
X51070313Y-57832183D01*
X51164670Y-57641267D01*
X51168469Y-57631672D01*
X51230377Y-57427910D01*
X51232555Y-57417837D01*
X51233986Y-57406962D01*
X51231775Y-57392778D01*
X51218617Y-57389000D01*
X48583225Y-57389000D01*
X48569694Y-57392973D01*
X48568257Y-57402966D01*
X48598565Y-57537446D01*
X48601645Y-57547275D01*
X48681770Y-57744603D01*
X48686413Y-57753794D01*
X48797694Y-57935388D01*
X48803777Y-57943699D01*
X48943213Y-58104667D01*
X48950577Y-58111879D01*
X48955522Y-58115985D01*
X48995156Y-58174889D01*
X48996653Y-58245870D01*
X48959537Y-58306392D01*
X48919264Y-58330910D01*
X48811705Y-58371232D01*
X48811704Y-58371233D01*
X48803295Y-58374385D01*
X48686739Y-58461739D01*
X48599385Y-58578295D01*
X48548255Y-58714684D01*
X48541500Y-58776866D01*
X48541500Y-60573134D01*
X48008000Y-60573134D01*
X48008000Y-45071349D01*
X48028002Y-45003228D01*
X48081658Y-44956735D01*
X48151932Y-44946631D01*
X48216512Y-44976125D01*
X48229809Y-44989516D01*
X48359102Y-45140898D01*
X48551624Y-45305328D01*
X48767498Y-45437616D01*
X48772068Y-45439509D01*
X48772072Y-45439511D01*
X48926761Y-45503585D01*
X49001409Y-45534505D01*
X49086032Y-45554821D01*
X49242784Y-45592454D01*
X49242790Y-45592455D01*
X49247597Y-45593609D01*
X49347416Y-45601465D01*
X49434345Y-45608307D01*
X49434352Y-45608307D01*
X49436801Y-45608500D01*
X49563199Y-45608500D01*
X49565648Y-45608307D01*
X49565655Y-45608307D01*
X49652584Y-45601465D01*
X49752403Y-45593609D01*
X49757210Y-45592455D01*
X49757216Y-45592454D01*
X49913968Y-45554821D01*
X49998591Y-45534505D01*
X50073239Y-45503585D01*
X50227928Y-45439511D01*
X50227932Y-45439509D01*
X50232502Y-45437616D01*
X50448376Y-45305328D01*
X50640898Y-45140898D01*
X50805328Y-44948376D01*
X50937616Y-44732502D01*
X50992866Y-44599118D01*
X51032611Y-44503164D01*
X51032612Y-44503162D01*
X51034505Y-44498591D01*
X51093609Y-44252403D01*
X51113474Y-44000000D01*
X51093609Y-43747597D01*
X51092049Y-43741095D01*
X51035660Y-43506221D01*
X51034505Y-43501409D01*
X50937616Y-43267498D01*
X50805328Y-43051624D01*
X50640898Y-42859102D01*
X50448376Y-42694672D01*
X50361498Y-42641433D01*
X50313867Y-42588785D01*
X50302260Y-42518744D01*
X50330363Y-42453546D01*
X50389254Y-42413892D01*
X50427333Y-42408000D01*
X59519670Y-42408000D01*
X59587791Y-42428002D01*
G37*
%TD.AperFunction*%
%TD*%
M02*
